<?xml version="1.0" encoding="utf-8"?>
<!-- Generator: Adobe Illustrator 19.0.0, SVG Export Plug-In . SVG Version: 6.00 Build 0)  -->
<svg version="1.1" id="Layer_1" xmlns="http://www.w3.org/2000/svg" xmlns:xlink="http://www.w3.org/1999/xlink" x="0px" y="0px"
	 viewBox="-22 292.7 566.3 208.3" style="enable-background:new -22 292.7 566.3 208.3;" xml:space="preserve">
<style type="text/css">
	.st0{fill:none;stroke:white;stroke-width:0.35;stroke-linecap:round;stroke-linejoin:round;stroke-miterlimit:10;}
	.st1{fill:none;stroke:white;stroke-width:0.5;}
	.st2{fill:none;stroke-width:0.5;}
	.st4{fill:none;stroke:white;stroke-width:0.5;}
</style>
<g id="truck">
	<path class="st0" d="M155.5,310.5h6.8v5.9h-6.8V310.5z M155.5,434.3h-0.4 M514.4,434.3H162.5 M155.1,432.7h0.4
	 M514.1,432.7H162.8 M154.9,447.2h1.1 M-17.8,448.8v-7.5 M-17.8,427.8v-4.5 M-17.8,423.3v-3.8 M-17.8,396v0.5 M-8,441.3
	c2.5,0,4.5-2,4.5-4.5 M-3.5,432.3v4.5 M-3.5,432.3c0-1.9-1.2-3.5-2.9-4.2 M-12.8,427.8h0.4 M-17.8,427.8h5 M-7.7,448.8h-0.8
	 M49.2,433.7c-16.6-12.4-40.1-9-52.5,7.6c-1.8,2.4-3.2,4.9-4.4,7.6 M49.7,433.1l-0.4,0.6 M65.4,463.8h-1.1 M65.4,463.8v-1.5
	l-0.1-1.5l-0.2-1.5l-0.2-1.5l-0.3-1.5l-0.3-1.5l-0.4-1.4l-0.4-1.4l-0.5-1.4l-0.6-1.4l-0.6-1.4l-0.7-1.3l-0.7-1.3l-0.8-1.3l-0.8-1.3
	l-0.8-1.2l-0.9-1.2l-0.9-1.2l-1-1.1l-1-1.1l-1.1-1l-1.1-1l-1.1-0.9l-1.2-0.9 M64.3,463.8v-1.5l-0.1-1.5l-0.1-1.4l-0.2-1.4l-0.2-1.4
	l-0.3-1.4l-0.4-1.4l-0.4-1.4l-0.5-1.4l-0.5-1.4l-0.6-1.3l-0.6-1.3l-0.7-1.3l-0.7-1.3l-0.8-1.2l-0.8-1.2l-0.9-1.2l-0.9-1.1l-1-1.1
	l-1-1.1l-1-1l-1.1-1l-1.1-0.9l-1.1-0.9 M65.4,463.8h3.1 M68.5,463.8c1.7-23.1-15.6-43.3-38.7-45c-2.6-0.2-5.2-0.1-7.7,0.1
	 M49.7,433.1c-7.5-6.3-17.3-9.2-27-8.1 M-6.4,428.1l29.1-3.2 M-8,441.3h-3.8 M-8.5,448.8h-3.3 M-17.8,448.8h6 M151.9,448.8h3
	 M145,448.8h6.9 M76.7,448.8H145 M76.7,448.8h-0.8 M75.9,448.8c-1.3,0-2.4,0.8-2.8,2 M0.7,446.5l-8.4,2.4 M61.2,448.8l-8.5-2.5
	 M76.7,448.8v-74.2 M-17.8,441.3h6 M96.2,345.9c-1.4,0-2.7,1-2.9,2.4 M87.3,378.3l5.9-30 M87.4,378.3c-0.3,1.6,0.7,3.2,2.4,3.5
	c0.2,0,0.4,0.1,0.6,0.1 M99.3,345.7v0.2 M99.3,378.1v4 M93.9,343.6c-1.4,0-2.6,1-2.9,2.4 M91.1,346l-6.5,33 M84.6,436.6V379
	 M84.6,436.5c0,1.6,1.3,2.9,2.9,2.9 M137.9,439.5H87.5 M137.9,439.5c1.6,0,2.9-1.3,2.9-2.9 M140.8,436.5v-90 M140.8,346.6
	c0-1.6-1.3-2.9-2.9-2.9 M100.8,343.6h-6.9 M137.9,343.6h-31.5 M100.1,344.4h-3.9 M134.8,344.4h-25.9 M139.3,348.9
	c0-2.5-2-4.5-4.5-4.5 M139.3,378.9v-30 M134.8,383.4c2.5,0,4.5-2,4.5-4.5 M134.9,383.4h-34.8 M100.1,383.4h-9.8 M85.9,378
	c-0.5,2.4,1.1,4.8,3.6,5.3c0.3,0.1,0.6,0.1,0.9,0.1 M91.8,348l-5.9,30 M96.2,344.4c-2.2,0-4,1.5-4.4,3.6 M100.1,344.4L100.1,344.4
	l-0.1,0.1v0.1v0.1v0.1v0.1v0.1v0.1v0.1v0.1v0.1v0.1v0.1v0.1v0.1v0.1v0.1v0.1v0.1l0,0l0,0l0,0l0,0l0,0 M99.3,382.1L99.3,382.1
	L99.3,382.1v0.1l0,0l0,0v0.1v0.1v0.1v0.1v0.1v0.1v0.1v0.1v0.1v0.1v0.1v0.1v0.1v0.1v0.1v0.1v0.1v0.1v0.1 M100.2,383.2L100.2,383.2
	L100.2,383.2L100.2,383.2L100.2,383.2L100.2,383.2L100.2,383.2L100.2,383.2L100.2,383.2L100.2,383.2L100.2,383.2L100.2,383.2
	L100.2,383.2L100.2,383.2L100.2,383.2L100.2,383.2l0.1-0.1l0,0l0,0l0,0l0,0l0,0l0,0l0,0l0,0 M134.8,345.9h-31 M96.2,345.9h1.2
	 M137.8,378.9v-30 M90.3,381.9h9 M134.9,381.9h-26.3 M104.5,381.9h-3 M134.8,381.9c1.7,0,3-1.3,3-3 M137.8,348.9c0-1.7-1.3-3-3-3
	 M22,418.9l-39.8,4.4 M-17.7,417.6l39.8-4.4 M74,449.6c-5.7-23.4-27.9-39-51.9-36.3 M-16.4,399.7l93.1-10.3 M-16.4,399.7
	L-16.4,399.7 M-16.4,399.6l-1.4,0.2 M141.2,381.9h-0.4 M90.7,345.7L84.2,379 M84.2,436.9V379 M84.2,436.8c0,1.7,1.3,3,3,3
	 M138.2,439.8h-51 M138.2,439.8c1.7,0,3-1.3,3-3 M141.2,436.8v-90.6 M141.2,346.3c0-1.7-1.3-3-3-3 M93.7,343.3h44.5 M93.7,343.3
	c-1.4,0-2.7,1-2.9,2.4 M-17.2,392.8v0.1v0.1v0.1v0.1v0.1v0.1v0.1v0.1v0.1v0.1v0.1v0.1v0.1v0.1v0.1v0.1v0.1v0.1v0.1v0.2v0.2v0.2v0.1
	v0.1 M-16.3,391.1L-16.3,391.1L-16.3,391.1L-16.3,391.1l-0.1,0.1l0,0l0,0l0,0v0.1v0.1v0.1v0.1v0.1v0.1v0.1v0.1v0.1v0.1v0.1v0.1v0.1
	v0.1v0.1v0.1v0.1 M-9.9,387.1c-2.6,0.3-5,1.8-6.5,4 M76.7,376.5l-86.6,10.6 M76.7,380.8l-93,10.3 M147.5,335.3l0.3-0.2l0.3-0.2
	l0.2-0.2l0.2-0.2l0.2-0.2l0.2-0.2l0.2-0.2l0.2-0.2l0.2-0.2l0.2-0.2l0.2-0.2l0.2-0.2l0.2-0.1l0.2-0.1l0.1-0.1l0.1-0.1l0.1-0.1
	l0.1-0.1l0.1-0.1l0.1-0.1l0.1-0.1l0.1-0.1l0.1-0.1l0.1-0.1l0.1-0.1l0,0l0,0l0,0l0,0l0,0 M151.9,339.8c-0.1-2.4-2-4.4-4.4-4.4
	 M154.3,337.4l-0.1,0.1l-0.1,0.1l-0.1,0.1l-0.1,0.1l-0.1,0.1l-0.1,0.1l-0.1,0.1l-0.1,0.1l-0.1,0.1l-0.1,0.1l-0.1,0.1l-0.1,0.1
	l-0.1,0.1l-0.1,0.1l-0.1,0.1l-0.1,0.1l-0.1,0.1l-0.1,0.1l-0.1,0.1l-0.1,0.1l-0.1,0.1l-0.1,0.1l-0.1,0.1l-0.1,0.1 M147.3,335.5
	L147.3,335.5L147.3,335.5L147.3,335.5L147.3,335.5L147.3,335.5L147.3,335.5L147.3,335.5L147.3,335.5L147.3,335.5L147.3,335.5
	L147.3,335.5L147.3,335.5L147.3,335.5L147.3,335.5L147.3,335.5L147.3,335.5L147.3,335.5h-0.1l0,0l0,0l0,0l0,0l0,0l0,0 M151.2,339.9
	L151.2,339.9L151.2,339.9L151.2,339.9L151.2,339.9L151.2,339.9L151.2,339.9L151.2,339.9L151.2,339.9L151.2,339.9L151.2,339.9
	L151.2,339.9L151.2,339.9L151.2,339.9L151.2,339.9L151.2,339.9L151.2,339.9L151.2,339.9L151.2,339.9L151.2,339.9L151.2,339.9
	L151.2,339.9h-0.1l0,0l0,0 M147.2,335.5L147.2,335.5l-0.1,0.2l-0.1,0.1l-0.1,0.2l-0.1,0.2l-0.1,0.2l-0.1,0.2l-0.1,0.2l-0.1,0.2
	l-0.1,0.3l-0.1,0.3l-0.1,0.3l-0.1,0.3l-0.1,0.3l-0.1,0.3l-0.1,0.3l-0.1,0.3l-0.1,0.3l-0.1,0.3l-0.1,0.3l-0.1,0.3l-0.1,0.3l-0.1,0.3
	l-0.1,0.3 M151.1,339.9h-0.2h-0.2h-0.2h-0.2h-0.2h-0.2l-0.2,0.1l-0.2,0.1l-0.2,0.1l-0.3,0.1l-0.3,0.1l-0.3,0.1l-0.3,0.1l-0.3,0.1
	l-0.3,0.1l-0.3,0.1l-0.3,0.1l-0.3,0.1l-0.3,0.1l-0.3,0.1l-0.3,0.1l-0.3,0.1l-0.3,0.1l-0.3,0.1 M145,350.3v-8.9 M145,448.8v-49.1
	 M151.9,339.8v109.1 M84.2,335.5h63 M84.2,336.3v-0.9 M83.2,341.4l1-5 M145,341.4H83.2 M76.7,374.6l6.5-33.2 M154.7,332.7
	c-0.8-0.7-1.9-1.1-3-1.1 M88.3,331.6h-2.5 M85.7,331.6c-2.5,0.8-4.5,3-5,5.6 M94.6,331.6h10.5 M105.1,331.6h46.6 M108.1,345.1
	L108.1,345.1L108.1,345.1L108.1,345.1L108.1,345.1L108.1,345.1L108.1,345.1L108.1,345.1L108.1,345.1L108.1,345.1L108.1,345.1
	L108.1,345.1L108.1,345.1L108.1,345.1L108.1,345.1L108.1,345.1L108.1,345.1L108.1,345.1L108.1,345.1L108.1,345.1L108.1,345.1
	L108.1,345.1L108.1,345.1L108.1,345.1L108.1,345.1 M108.1,345.1c0.5,0,0.8-0.4,0.8-0.8s-0.4-0.7-0.8-0.7 M106.4,343.6h-5.6
	 M107.3,345.1h-5.8 M106.4,343.6L106.4,343.6L106.4,343.6h0.2h0.1h0.1h0.1h0.1h0.1h0.1h0.1h0.1h0.1h0.1h0.1h0.1h0.1h0.1h0.1h0.1h0.1
	h0.1h0.1h0.1h0.1 M101.6,344.7c0.2-0.4-0.1-0.8-0.5-1c-0.1,0-0.2,0-0.3,0 M109.2,382.6l-1.3-0.5 M107.9,382.1l-6.4-2.4 M100.8,380.3
	L100.8,380.3L100.8,380.3L100.8,380.3L100.8,380.3L100.8,380.3L100.8,380.3L100.8,380.3L100.8,380.3L100.8,380.3L100.8,380.3
	L100.8,380.3L100.8,380.3L100.8,380.3L100.8,380.3L100.8,380.3L100.8,380.3L100.8,380.3L100.8,380.3L100.8,380.3L100.8,380.3
	L100.8,380.3L100.8,380.3L100.8,380.3L100.8,380.3 M106.5,382.6l-5.7-2.3 M106.5,382.6L106.5,382.6l0.1,0.1h0.1h0.1h0.1h0.1h0.1h0.1
	h0.1h0.1h0.1h0.1h0.1h0.1h0.1h0.1h0.1h0.1h0.1h0.1h0.1h0.1h0.1h0.1 M108.4,383.3C108.4,383.3,108.5,383.3,108.4,383.3 M108.5,383.3
	c0.4,0,0.7-0.4,0.7-0.7 M101.5,379.6l6.4,2.5 M109.2,382.6c0-0.3-0.2-0.6-0.5-0.7 M101.6,379.6L101.6,379.6L101.6,379.6L101.6,379.6
	L101.6,379.6 M101.6,379.2l7.1,2.8 M101.5,379.8v-0.1 M100.1,382.6c0,0.4,0.3,0.8,0.8,0.8 M100.8,383.3v-3 M100.1,382.6V379
	 M101.6,379v0.6 M108.3,383.3C108.3,383.3,108.4,383.3,108.3,383.3 M100.9,380.4l5.6,2.2 M108.1,383.3l-6.9-2.7 M101,380.4
	L101,380.4L101,380.4L101,380.4L101,380.4L101,380.4L101,380.4L101,380.4L101,380.4L101,380.4l0.1,0.1l0,0l0,0l0,0l0,0l0,0l0,0l0,0
	l0,0l0,0l0,0l0,0l0,0l0,0l0,0 M101,383.3c0.3,0,0.6-0.3,0.6-0.6 M101.6,380.7v2 M101,380.4v2.9 M100.8,383.3L100.8,383.3
	 M100.1,378.9v0.1 M101.6,378.8v0.2 M100.1,379h1.5 M101.6,344.4h-1.5 M101.6,344.4c0-0.4-0.3-0.8-0.8-0.8s-0.8,0.3-0.8,0.8
	 M100.1,379c0,0.4,0.3,0.7,0.8,0.7s0.8-0.3,0.8-0.7 M100.1,344.4v34.5 M101.6,344.4v34.4 M103.9,378.1c0.7,0,1.2-0.7,1.2-1.5
	 M103.8,376.6h1.3 M102.3,378.1L102.3,378.1h0.2h0.1h0.1h0.1h0.1h0.1h0.1l0.1-0.1l0.1-0.1l0.1-0.1l0.1-0.1l0.1-0.1l0.1-0.1l0.1-0.1
	l0.1-0.1l0.1-0.1v-0.1V377v-0.1v-0.1v-0.1v-0.1v-0.1 M103.9,378.1h-1.6 M105.1,347.4h-1.3 M105.1,347.4c0-0.8-0.6-1.5-1.2-1.5
	 M96.5,376.6L96.5,376.6v0.2v0.1v0.1v0.1v0.1v0.1v0.1v0.1v0.1v0.1v0.1v0.1v0.1l0.1,0.1l0.1,0.1h0.1h0.1H97h0.1h0.1h0.1h0.1h0.1
	 M97.4,345.9L97.4,345.9L97.4,345.9h-0.2h-0.1H97h-0.1h-0.1h-0.1l-0.1,0.1l-0.1,0.1v0.1v0.1v0.1v0.1v0.1v0.1v0.1v0.1v0.1v0.1v0.1
	v0.1v0.1v0.1 M103.8,347.4L103.8,347.4v-0.2v-0.1V347v-0.1v-0.1v-0.1l-0.1-0.1l-0.1-0.1l-0.1-0.1l-0.1-0.1l-0.1-0.1l-0.1-0.1
	l-0.1-0.1l-0.1-0.1l-0.1-0.1h-0.1h-0.1h-0.1h-0.1h-0.1h-0.1h-0.1h-0.1 M102.3,345.9h1.6 M105.1,347.4v29.2 M103.8,376.6v-29.2
	 M96.5,347.4v29.2 M102.3,345.9h-0.8 M100,345.9h-2.6 M97.5,378.1h2.6 M102.3,378.1h-0.8 M163,318h-8.2 M162.2,316.5h-6.8
	 M162.2,316.5l0.8,1.5 M155.5,316.5l-0.8,1.5 M154.8,420.7h8.2 M155.4,421.5h6.8 M154.7,420.7l0.8,0.8 M162.2,421.5l0.8-0.8
	 M155.5,445.5c0,1.9,1.5,3.4,3.4,3.4s3.4-1.5,3.4-3.4 M162.2,445.5V438 M155.5,445.5V438 M162.2,421.5V438 M155.5,421.5V438
	 M163,420.7V318 M154.7,420.7V318 M97,333.5c0-0.2-0.2-0.4-0.4-0.4 M97,333.5h-1.2 M96.6,333.1h-0.8 M95.8,333.5h-7.5 M94.7,333.1
	h1.1 M94.8,333.1h-5.9 M88.8,333.1h-0.5 M87.6,333.1c-0.2,0-0.4,0.2-0.4,0.4 M88.3,333.5h-1.1 M88.3,333.1h-0.8 M97,333.5v0.4
	 M97,333.9h-1.2 M87.2,333.5v0.4 M87.2,333.9h1.1 M89.5,331.6l-1-0.4 M89.5,330.5v1.1 M89.5,330.5c-0.4,0-0.9,0.3-1,0.7 M92.8,331.6
	l0.7-0.9 M93.5,330.7c-0.2-0.2-0.4-0.2-0.7-0.2 M92.8,331.6v-1.1 M89.4,330.5h3.4 M92.9,331.6h-3.4 M93.5,330.7l3.1,2.4 M94.8,333.1
	l-1.9-1.5 M88.9,333.1l0.6-1.5 M88.4,331.2l-0.8,1.9 M95.8,333.9h-7.5 M88.5,380.9L88.5,380.9L88.5,380.9L88.5,380.9l0.1,0.1l0,0
	l0,0l0,0l0,0l0,0l0,0l0,0l0,0l0,0l0,0l0,0l0,0l0,0l0,0l0,0l0,0l0,0l0,0l0,0l0,0 M89.2,381.4l0.3,0.4 M89.5,381.8l-0.2-0.3
	 M91.9,381.9c-2-1.4-3.6-2.5-4.6-3.2 M92.6,381.9l-0.1-0.1l-0.1-0.1l-0.1-0.1l-0.1-0.1l-0.1-0.1l-0.1-0.1l-0.1-0.1l-0.1-0.1
	l-0.1-0.1l-0.1-0.1l-0.1-0.1l-0.1-0.1l-0.1-0.1l-0.1-0.1l-0.1-0.1l-0.1-0.1l-0.1-0.1l-0.1-0.1l-0.1-0.1l-0.1-0.1l-0.1-0.1l-0.1-0.1
	l-0.1-0.1l-0.1-0.1l-0.1-0.1l-0.1-0.1l-0.1-0.1l-0.1-0.1l-0.1-0.1l-0.1-0.1l-0.1-0.1l-0.1-0.1l-0.1-0.1l-0.1-0.1l-0.1-0.1l-0.1-0.1
	l-0.1-0.1l-0.1-0.1l-0.1-0.1l-0.1-0.1l-0.1-0.1h-0.1h-0.1h-0.1h-0.1H88h-0.1h-0.1h-0.1h-0.1h-0.1h-0.1h-0.1h-0.1h-0.1H87h-0.1h-0.1
	h-0.1h-0.1l0,0l0,0l0,0l0,0 M91.3,381.9c-1.7-1.1-3-2.1-4-2.7 M87.8,380.5L87.8,380.5l0.2,0.1l0.1,0.1l0.1,0.1l0.1,0.1l0.1,0.1
	l0.1,0.1l0.1,0.1 M89.9,381.9L89.9,381.9l-0.2-0.1l-0.1-0.1l-0.1-0.1l-0.1-0.1l-0.1-0.1l-0.1-0.1l-0.1-0.1l-0.1-0.1l-0.1-0.1
	l-0.1-0.1l-0.1-0.1l-0.1-0.1h-0.1h-0.1h-0.1h-0.1h-0.1H88h-0.1h-0.1h-0.1h-0.1h-0.1h-0.1h-0.1h-0.1h-0.1H87h-0.1h-0.1h-0.1
	 M84.6,406.3l-0.4,0.5 M84.6,401.1l-0.4,0.5 M88.4,380.8l0.5,0.7 M84.2,431.6h0.4 M140.8,431.6h0.4 M84.2,433.5h0.4 M140.8,433.5
	h0.4 M144.2,351v2.2 M145.7,353.2V351 M145.7,351c0-0.4-0.3-0.8-0.8-0.8s-0.8,0.3-0.8,0.8 M144.2,396.7c0,0.4,0.3,0.8,0.8,0.8
	s0.8-0.3,0.8-0.8 M144.2,395.5c0,0.1,0.3,0.1,0.8,0.1s0.8-0.1,0.8-0.1 M145.7,354.4c0-0.1-0.3-0.1-0.8-0.1s-0.8,0.1-0.8,0.1
	 M145.7,353.2c0-0.4-0.3-0.8-0.8-0.8s-0.8,0.3-0.8,0.8 M145.7,396.7v-1.2 M144.2,395.5v1.2 M145.7,395.5v-41.1 M144.2,354.4v41.1
	 M145.7,354.4v-1.2 M144.2,353.2v1.2 M144.2,396.7v2.2 M145.7,398.9v-2.2 M144.2,399c0,0.4,0.3,0.8,0.8,0.8s0.8-0.3,0.8-0.8
	 M84,337.4c-0.2,0-0.4,0.1-0.4,0.3 M83.6,337.7l-7.2,36.8 M76.4,374.5l0.4,0.1 M80.7,337.2l-7.8,39.7 M133.3,391.6
	c0.8,0,1.5-0.7,1.5-1.5 M133.3,391.3c0.6,0,1.1-0.5,1.1-1.1 M134.8,387.9v2.2 M134.5,387.9v2.2 M134.8,387.9c0-0.8-0.7-1.5-1.5-1.5
	 M134.5,387.9c0-0.6-0.5-1.1-1.1-1.1 M119.1,386.4h14.3 M119.1,386.8h14.3 M119.1,386.4c-0.8,0-1.5,0.7-1.5,1.5 M119.1,386.8
	c-0.6,0-1.1,0.5-1.1,1.1 M117.6,387.9v2.2 M118,387.9v2.2 M117.6,390.1c0,0.8,0.7,1.5,1.5,1.5 M118,390.1c0,0.6,0.5,1.1,1.1,1.1
	 M119.1,391.6h14.3 M119.1,391.3h14.3 M107,453.3L107,453.3h-0.2h-0.1h-0.1h-0.1h-0.1h-0.1h-0.1h-0.1H106h-0.1h-0.1h-0.1h-0.1h-0.1
	l0,0l0,0l0,0l0,0l0,0l0,0l0,0v0.1v0.1 M106.2,454.7c0-0.4-0.3-0.7-0.8-0.7 M107,454L107,454L107,454h-0.2h-0.1l0,0l0,0l0,0l0,0l0,0
	l0,0l0,0l0,0l0,0l0,0l0,0l0,0l0,0l0,0l0,0l0,0l0,0l0,0l0,0l0,0 M107,454v-0.7 M128.7,454.7L128.7,454.7L128.7,454.7v-0.1l0,0l0,0
	l0,0l0,0l0,0l0,0l0,0l0,0l0,0l0,0l0,0l0,0l0,0l0,0l0,0l0,0l0,0h-0.1h-0.1h-0.1h-0.1 M129.5,454c-0.4,0-0.8,0.3-0.8,0.7 M129.5,454
	L129.5,454v-0.1l0,0l0,0l0,0l0,0l0,0l0,0l0,0h-0.1h-0.1h-0.1h-0.1H129h-0.1h-0.1h-0.1h-0.1h-0.1h-0.1h-0.1h-0.1h-0.1H128 M128,453.3
	v0.7 M105.5,465.1L105.5,465.1v0.2v0.1v0.1v0.1v0.1v0.1v0.1l0.1,0.1l0.1,0.1l0.1,0.1l0.1,0.1l0.1,0.1l0.1,0.1l0.1,0.1l0.1,0.1h0.1
	h0.1h0.1h0.1h0.1h0.1h0.1h0.1 M107,466.7v-0.6 M106.2,465.3L106.2,465.3L106.2,465.3v0.1l0,0l0,0l0,0l0,0l0,0l0,0l0,0l0,0l0,0l0,0
	l0,0l0,0l0,0l0,0l0,0l0,0l0,0l0,0l0,0h0.1h0.1 M106.2,465.3c0-0.1-0.3-0.2-0.8-0.2 M128,466.7L128,466.7h0.2h0.1h0.1h0.1h0.1h0.1
	h0.1l0.1-0.1l0.1-0.1l0.1-0.1l0.1-0.1l0.1-0.1l0.1-0.1l0.1-0.1l0.1-0.1v-0.1v-0.1v-0.1v-0.1v-0.1v-0.1v-0.1v-0.1 M129.5,465.1
	c-0.4,0-0.8,0.1-0.8,0.2 M128.1,466.1L128.1,466.1L128.1,466.1L128.1,466.1L128.1,466.1L128.1,466.1L128.1,466.1L128.1,466.1
	L128.1,466.1L128.1,466.1L128.1,466.1L128.1,466.1L128.1,466.1L128.1,466.1L128.1,466.1L128.1,466.1L128.1,466.1L128.1,466.1
	L128.1,466.1L128.1,466.1L128.1,466.1L128.1,466.1H128l0,0l0,0 M128,466.1v0.6 M129.5,454v11.1 M128.7,454.7v10.6 M107,466.7h21
	 M128,466.1h-21 M105.5,454v11.1 M106.2,454.7v10.6 M128,453.3h-21 M107,454h21 M135.1,457.8L135.1,457.8h0.1h0.1h0.1h0.1h0.1h0.1
	h0.1h0.1h0.1h0.1h0.1h0.1h0.1l0,0l0,0l0,0l0,0l0,0l0,0l0,0l0,0l0,0l0,0 M132.7,455.5l-0.1,0.1v0.1v0.1v0.1v0.1v0.1v0.1l0.1,0.1
	l0.1,0.1l0.1,0.1l0.1,0.1l0.1,0.1l0.1,0.1l0.1,0.1l0.2,0.1l0.2,0.1l0.2,0.1l0.2,0.1l0.2,0.1l0.2,0.1h0.2h0.2h0.2h0.2 M135.1,457.4
	v0.5 M132.9,455.8L132.9,455.8v0.2v0.1v0.1v0.1l0.1,0.1l0.1,0.1l0.1,0.1l0.1,0.1l0.1,0.1l0.1,0.1l0.1,0.1l0.1,0.1l0.1,0.1l0.1,0.1
	l0.1,0.1l0.1,0.1h0.1h0.1h0.1h0.1h0.1h0.1h0.1 M135.1,457.4h0.1h0.1h0.1h0.1h0.1h0.1h0.1l0.1-0.1l0.1-0.1l0.1-0.1l0.1-0.1l0.1-0.1
	l0.1-0.1l0.1-0.1l0.1-0.1l0.1-0.1l0.1-0.1l0.1-0.1l0.1-0.1v-0.1V456v-0.1v-0.1v-0.1 M82.7,487.8v-36 M80,486.2v-32.8 M144.8,453.4
	v32.8 M80,486.2c0.5,1,1.5,1.6,2.7,1.6 M82.7,451.8c-1.1,0-2.1,0.6-2.7,1.6 M143,487.7c0.8-0.2,1.4-0.8,1.8-1.5 M144.8,453.4
	c-0.4-0.7-1-1.3-1.8-1.5 M82.7,451.8H83 M138.5,451.8h-51 M83,487.8h-0.3 M138.5,487.8h-51 M76.4,468.1c-0.5,6.3,0.8,12.5,3.6,18.1
	 M80,453.4c-2.4,4.5-3.6,9.6-3.6,14.7 M144.8,486.2c2.4-4.5,3.6-9.6,3.6-14.7 M148.5,468.1c0-5.1-1.2-10.2-3.6-14.7 M148.5,468.1
	v3.4 M132.9,455.8L132.9,455.8 M137.4,455.7L137.4,455.7 M134,452.6h0.1 M134.1,452.6L134.1,452.6 M136.1,452.6L136.1,452.6
	 M136.2,452.6h0.1 M132.7,453.5c-0.1,0-0.2,0.1-0.2,0.1 M132.6,453.5h0.1 M137.6,453.5h0.1 M137.8,453.7c0-0.1-0.1-0.1-0.2-0.1
	 M132.5,455L132.5,455 M132.7,454.8c-0.1,0-0.1,0.1-0.1,0.2 M132.7,454.8c-0.1,0-0.2,0.1-0.2,0.1 M137.8,455c0-0.1-0.1-0.1-0.2-0.1
	 M137.7,455.1c0-0.1-0.1-0.2-0.1-0.2 M137.7,455.1C137.7,455,137.8,455,137.7,455.1 M134.1,456H134 M134.1,456v-0.3 M134.1,455.7
	c-0.1,0-0.1,0.1-0.1,0.2 M136.1,456v-0.3 M136.2,456c0,0,0,0-0.1,0 M136.3,456c0-0.1-0.1-0.2-0.1-0.2 M136.2,456.4c0,0,0,0-0.1,0
	 M136.3,456.4V456 M136.1,456v0.4 M134.1,456h2 M134.1,455.7h2 M136.3,456l1.4-0.9 M137.6,454.8l-1.4,0.9 M134,456l-1.4-0.9
	 M132.7,454.8l1.4,0.9 M134.1,456.4H134 M134.1,456.4V456 M134,456.4V456 M137.8,453.7v1.3 M137.6,454.8v-1.3 M137.7,455.5
	C137.7,455.5,137.8,455.4,137.7,455.5 M137.8,455.4V455 M137.7,455.1v0.4 M132.5,455v-1.3 M132.7,453.5v1.3 M132.5,455.4
	C132.5,455.4,132.5,455.5,132.5,455.4 M132.6,455.5v-0.4 M132.5,455.4V455 M136.1,452.6l1.4,0.9 M134.1,452.6l-1.4,0.9 M136.1,452.6
	h-2 M134,452.6h0.1 M136.2,452.6h0.1 M132.6,453.5c-0.1,0-0.1,0.1-0.1,0.2 M137.8,453.7c0-0.1,0-0.1-0.1-0.2 M136.3,452.6l1.4,0.9
	 M134,452.6l-1.4,0.9 M134.1,452.6h2 M132.6,455.5l1.4,0.9 M136.3,456.4l1.4-0.9 M136.1,456.4h-2 M87.5,451.6v-2.7 M83,451.6v-2.7
	 M87.5,451.5v36.6 M83,451.5v36.6 M83,451.6h4.5 M83,488.1h4.5 M143,451.6v-2.7 M138.5,451.6v-2.7 M143,451.5v36.6 M138.5,452.7
	v35.5 M138.5,452.7v-1.1 M138.5,451.6h4.5 M138.5,488.1h4.5 M-12.7,430.1v9 M-13,430.1L-13,430.1L-13,430.1L-13,430.1L-13,430.1
	L-13,430.1L-13,430.1L-13,430.1h0.1l0,0l0,0l0,0l0,0l0,0l0,0l0,0l0,0l0,0l0,0l0,0l0,0l0,0l0,0l0,0l0,0 M-13,430.1L-13,430.1
	L-13,430.1L-13,430.1L-13,430.1L-13,430.1h-0.1l0,0l0,0l0,0l0,0l0,0l0,0l0,0l0,0l0,0l0,0l0,0l0,0l0,0l0,0l0,0 M-13.3,439.1
	L-13.3,439.1L-13.3,439.1L-13.3,439.1L-13.3,439.1L-13.3,439.1L-13.3,439.1L-13.3,439.1L-13.3,439.1L-13.3,439.1L-13.3,439.1h0.1
	l0,0l0,0l0,0l0,0l0,0l0,0l0,0l0,0l0,0l0,0 M-13,439.1L-13,439.1L-13,439.1L-13,439.1L-13,439.1L-13,439.1L-13,439.1L-13,439.1h0.1
	l0,0l0,0l0,0l0,0l0,0l0,0l0,0l0,0l0,0l0,0l0,0l0,0l0,0l0,0l0,0l0,0 M-16.7,439.1h3.4 M-16.7,439.1c-0.6,0-1.1,0.5-1.1,1.1
	 M-17.8,440.2h6.4 M-12.7,439.1h1.3 M-16.7,430.1h3.4 M-12.7,430.1h0.2 M-17.8,440.2v-3.4 M-17.8,432.3v4.5 M-17.8,432.4V429
	 M-17.8,429c0,0.6,0.5,1.1,1.1,1.1 M-11.5,439.1h2.1 M-9.3,440.2h-2.1 M-17.7,429h5 M-9.4,439.1c1.2,0,2.3-1,2.3-2.2
	c0-0.5-0.1-0.9-0.4-1.3 M-9.4,440.2c1.9,0,3.4-1.5,3.4-3.4c0-0.7-0.2-1.4-0.6-1.9 M-13.7,429.1h0.1h0.1h0.1h0.1h0.1h0.1h0.1h0.1h0.1
	h0.1h0.1h0.1h0.1h0.1h0.1h0.1h0.1h0.1h0.1h0.1h0.1h0.1h0.1l0,0 M-11.8,430.2L-11.8,430.2L-11.8,430.2L-11.8,430.2h-0.1l0,0l0,0l0,0
	l0,0l0,0l0,0l0,0l0,0l0,0l0,0l0,0l0,0l0,0l0,0l0,0l0,0l0,0l0,0l0,0l0,0 M-7.5,435.5l-3.2-4.5 M-9.8,430.4l3.2,4.5 M-10.7,431
	c-0.3-0.4-0.7-0.7-1.1-0.8 M-9.7,430.4c-0.4-0.6-1-1-1.7-1.3 M-17.8,440.2v1.1 M-12.4,427.8h1 M-17.8,427.8v1.1 M-11.4,441.3H-8
	 M-3.5,432.3v4.5 M-8,427.8h-3.4 M-8,441.3c2.5,0,4.5-2,4.5-4.5 M-3.5,432.3c0-2.5-2-4.5-4.5-4.5 M-15.5,430.1v9 M-18,444.5v4.3
	 M-18,400.7V396 M-17.8,400.7H-18 M-17.8,396.5v4.2 M-17.8,396H-18 M-17.8,444.5H-18 M-18,448.8h0.2 M-17.8,448.8L-17.8,448.8
	 M-18,444.5v-43.8 M-17.8,419.6v-18.9 M-21,444.4v-43.8 M-21,400.6v-1.9 M-21,444.4v1.8 M-18.3,444.5v-43.8 M-18.3,396
	c-1.4,0-2.6,1.2-2.6,2.6 M-18.3,400.7V396 M-21,446.2c0,1.5,1.2,2.6,2.6,2.6 M-18.3,444.5v4.3 M-18.4,396h0.4 M-18.4,400.7h0.4
	 M-18,400.7V396 M-18.4,444.5h0.4 M-17.9,448.8h-0.4 M-18,444.5v4.3 M-18,444.5v-43.8 M-5,453.3v-3 M-5,468.3v-3 M-11,468.3h6
	 M-17.8,468.3h6.8 M-20.8,465.3c0,1.7,1.3,3,3,3 M-17.8,450.3c-1.7,0-3,1.3-3,3 M-11,450.3h-6.8 M-11,450.3h6 M-5,465.3v-12
	 M-20.8,465.3v-12 M84.3,335.5l-2.7-0.5 M106.2,463.8h22.5 M154.9,448.8l0.3-27.6 M68.5,463.8l4.6-13 M76.3,374.5l-3.4,2.4
	 M135.1,457.8h0.2h0.2h0.2h0.2l0.2-0.1l0.2-0.1l0.2-0.1l0.2-0.1l0.2-0.1l0.2-0.1l0.1-0.1l0.1-0.1l0.1-0.1l0.1-0.1l0.1-0.1l0.1-0.1
	l0.1-0.1v-0.1v-0.1v-0.1v-0.1V456v-0.1l-0.1-0.1 M300.2,447.1h-44.3 M300.1,448.7H255 M316.4,448.7h59 M317.8,447.1h58.5
	 M507.7,448.7h16.1 M524,447.1h-18 M228.7,338.4h-54.9 M173.6,389.4h131.3 M305.1,389.7H173.5 M173.6,395.1h140 M313.8,395.4h-140
	 M321.4,400.4H191.8 M181.6,400.7h140 M173.9,404.4h153.5 M327.6,404.7H174 M194.4,447.1H238 M193.5,448.7h44.4 M176.9,447.2h-15
	 M176.7,448.7L90,448.8 M339,408.4v4.6 M339,408.4v4.6 M339,413c0,0,0.1,0,0.2,0l0,0 M339.5,409L339.5,409v4 M347.8,413h5.2
	 M339.5,413h5.2 M339.5,413c-0.2,0-0.3,0-0.3,0 M353,407.1v5.9 M353.5,413L353.5,413 M353.4,413L353.4,413c0,0-0.2,0-0.3,0
	 M353.5,413v-5.9l0,0 M353.5,413h-0.1 M351.1,409.2c-0.3,0-0.5,0.3-0.5,0.6s0.2,0.6,0.5,0.6 M351.1,410.4v-1.2 M351.1,409.2h0.3
	 M351.4,409.8v0.6 M351.4,410.4L351.4,410.4c0.3,0,0.6-0.3,0.6-0.6s-0.2-0.6-0.6-0.6 M351.4,409.2v0.6v0.6 M351.4,410.4h-0.3
	 M338.4,407.7v5.8 M339,414l14.5,0.1 M354.1,413.5v-5.8 M338.4,413.5c0,0.3,0.3,0.5,0.6,0.5 M338.4,413.5l0.6,0.5 M353.5,414.1
	c0.3,0,0.6-0.2,0.6-0.5 M353.5,414.1l0.6-0.6 M354.1,407.6c0-0.3-0.2-0.5-0.6-0.5 M354.1,407.6l-0.6-0.5 M339,414v0.1 M353.5,414.1
	v0.1 M354.1,413.6v-0.1l0,0 M338.4,413.5v0.1 M354.1,407.6v0.1 M353.7,406.7h-1.9 M352.9,405.1h-1.1 M348.5,407.1h4.5h0.2
	 M353.2,406.9h-1.4H351h-0.6h-2.2 M353.7,405.9v0.8 M353.7,406.8L353.7,406.8C353.7,406.9,353.7,406.9,353.7,406.8 M353.7,406.7v0.1
	 M353.7,405.8c0-0.4-0.3-0.7-0.8-0.7 M353.7,405.8l-0.8-0.7 M353.7,405.9v-0.1 M353.2,407.1c0.1,0,0.2,0,0.3,0s0.1,0,0.2,0l0,0
	 M353.7,406.9L353.7,406.9c-0.1,0-0.3,0-0.5,0 M353.2,406.9v0.2 M353.7,406.9v0.2 M347.5,402.1c-0.5,0-1,0.5-1,1.1s0.4,1.1,1,1.1
	 M347.5,402.1v2.3 M347.5,404.4h0.2 M347.7,402.1L347.7,402.1h-0.2 M344.4,404.3c0.5-0.2,0.8-0.8,0.7-1.4c-0.1-0.5-0.5-0.8-1-0.9
	 M344.1,402.1l0.3,2.2 M344.1,402.1L344.1,402.1h-0.2 M343.9,402.1c-0.1,0-0.2,0-0.3,0.1c-0.3,0.1-0.5,0.4-0.6,0.8
	c0,0.1,0,0.2,0,0.3c0,0.1,0,0.3,0.1,0.4 M343,403.7L343,403.7l0.9-1.6 M347.7,404.4c0.5,0,1-0.5,1-1.1s-0.4-1.2-1-1.2 M347.7,405
	c0.8,0,1.4-0.7,1.4-1.7c0-0.9-0.6-1.6-1.4-1.6 M347.7,401.7v0.4v2.3v0.6 M343.9,401.7L343.9,401.7c-0.8,0-1.4,0.7-1.4,1.6
	c0,0.1,0,0.1,0,0.1 M342.5,403.5l0.5-0.6l0.6-0.8l0.3-0.4 M342.5,403.5L342.5,403.5 M345.4,405h2.3 M347.7,401.7h-3.8 M351.8,401.3
	c0-0.3,0-0.5-0.1-0.5 M339.7,400.8c0,0-0.1,0.2-0.1,0.5 M351.8,401.3v3.8v1.6v0.2 M339.7,402.6v-1.3 M350.4,407h-2 M351,400.9v6
	 M340.5,402.9v-2.1 M350.4,400.9v6v0.1 M341.2,400.8v2.3 M352.2,400.9L352.2,400.9 M352.2,400.5L352.2,400.5 M352.2,400.5v0.4
	 M339.3,400.5v0.3 M352.2,400.9v-0.4 M339.3,400.8h0.4 M340.2,400.8h-0.5 M340.2,400.5h-0.9l0,0 M339.7,400.8L339.7,400.8
	 M352.2,400.9h-0.4l0,0h-0.4 M341.2,400.8l9.2,0.1l0,0 M352.2,400.5h-0.8 M350.4,400.5h-9.2 M340.2,400.8v-0.3 M351.4,400.9
	c0,0-0.2,0-0.4,0c-0.2,0-0.4,0-0.6,0 M341.2,400.8L341.2,400.8c-0.3,0-0.5,0-0.6,0c-0.2,0-0.3,0-0.4,0 M351.4,400.9v-0.4
	 M351.4,400.5c-0.1,0-0.5,0-1,0 M350.4,400.5v0.4 M341.2,400.5c-0.5,0-0.9,0-1,0 M341.2,400.8v-0.3 M339.1,402.4l0.6,0.2l0.8,0.3
	l0.7,0.2l0.9,0.2 M342.3,403.4l0.2,0.1l0,0l0.5,0.2l0.7,0.2 M347.9,412.9l-0.1,0.1l-1.6,0.5 M349,407.9l0.5,2 M342.3,403.4l-0.2-0.1
	 M342.3,403.4l-2.7,5.6 M339.4,408.8l2.7-5.5 M335.1,405l-1,1.9 M335.1,405L335.1,405 M332.3,403.1l-0.1,0.4 M345.3,413.3
	c0.3,0.2,0.6,0.2,0.9,0.1 M345.3,413.3l0.9,0.2 M347.9,412.9c0.3-0.1,0.6-0.3,0.7-0.6 M348.7,412.3l-0.8,0.6 M349.4,410.9
	c0.2-0.3,0.2-0.7,0.1-1 M349.5,409.9l-0.1,1 M349,407.9c-0.1-0.3-0.3-0.6-0.5-0.8l0,0 M348.4,407l0.1,0.1l0.5,0.8 M349.4,410.9
	l-0.7,1.4 M348.4,407L348.4,407l-0.2-0.1l0,0l-2.8-1.9l0,0l-1-0.7l-0.7-0.4 M339.1,402.4l-0.3,0.5l-0.7,1.5 M228.4,333.1l-0.1,0.2
	l-0.2,0.4 M229.9,330.1l0.2-0.4 M229.8,330.3v-0.2 M228.1,333.7l104.2,69.4l2.8,1.9l0,0l2,1.3 M337.4,405.8l-109-72.7 M338.8,402.9
	l-109-72.6 M230.1,329.7l109,72.7 M228.4,333.1l0.1-0.3l1.1-2.2l0.2-0.3 M344.7,409.8c0-1,0.7-1.8,1.6-1.8s1.6,0.8,1.6,1.8
	s-0.7,1.8-1.6,1.8C345.4,411.6,344.7,410.8,344.7,409.8z M332.5,406.4c-0.1-0.1-0.2-0.2-0.2-0.4c0-0.3,0.2-0.5,0.4-0.5
	c0.1,0,0.1,0,0.2,0.1s0.2,0.2,0.2,0.4c0,0.3-0.2,0.4-0.4,0.4C332.7,406.5,332.6,406.5,332.5,406.4z M331.9,407.6
	c0.7,0.5,1.7,0.2,2.1-0.7c0.4-0.9,0.2-2-0.6-2.5 M333.5,404.5l-0.6,1.1l-0.4,0.8l-0.6,1.2 M333.5,404.5l-1.3-1 M331.9,407.6
	l-1.3-0.9 M332.2,403.5l-0.3,0.5 M330.8,406.2l-0.2,0.5 M189.2,307.9l143,95.6l0,0 M189.2,307.9l-0.2,0.4 M331.9,404L189,308.3
	 M186.2,305.8c-0.2-0.2-0.5-0.1-0.7,0.1 M186.2,305.8l-0.7,0.1 M189,308.3l-3.5-2.4 M189.2,307.9l-3-2.1 M187.7,311l142.9,95.7
	 M184.6,309l3.1,2 M330.8,406.2l-142.9-95.6 M187.9,310.6l-0.2,0.4 M184.4,308.2c-0.1,0.3,0,0.6,0.3,0.8 M184.4,308.2l0.2,0.8
	 M184.4,308.2l3.5,2.4 M330.8,406.2l1.1-2.2 M185.5,305.9c-0.5,0.6-0.9,1.4-1.1,2.3 M184.4,308.2l1.1-2.3 M189,308.3l-1.1,2.3
	 M185.5,304.2c-0.1,0.3,0,0.6,0.3,0.8 M185.5,304.2l0.2,0.7 M188.8,306.9l0.2-0.4 M185.5,304.2l3.5,2.3 M188.8,306.9l-3.1-2
	 M189,306.5l39.5,26.3 M228.3,333.3l-39.5-26.4 M187.3,301.8l3,2 M229.9,330.1L229.9,330.1l-39.6-26.3 M187.3,301.8
	c-0.2-0.2-0.5-0.1-0.7,0.1 M186.6,301.9l0.7-0.1 M190.3,303.8l-0.2,0.4 M186.6,301.9l3.5,2.3 M229.6,330.6L229.6,330.6l-39.5-26.4
	 M190.1,304.2l-1.1,2.3 M186.6,301.9c-0.5,0.6-0.9,1.4-1.1,2.3 M186.6,301.9l-1.1,2.3 M340.6,410.2l-1-1.2 M339.4,408.8l-0.4-0.4
	l0,0l-0.6-0.7l-1.3-1.4 M339.6,409h-0.1l-0.1-0.2 M340.6,410.2l4.1,2.8l0.6,0.3 M338.1,404.4l-0.7,1.4l-0.3,0.5 M518,436.9
	c0,0.8,0.6,1.4,1.4,1.4s1.4-0.6,1.4-1.4s-0.6-1.4-1.4-1.4S518,436.2,518,436.9L518,436.9z M517.8,436.9c0,0.9,0.7,1.6,1.6,1.6
	s1.6-0.7,1.6-1.6s-0.7-1.6-1.6-1.6S517.8,436,517.8,436.9L517.8,436.9z M292.1,323.7c0,0.3,0.3,0.6,0.6,0.6s0.6-0.3,0.6-0.6
	c0-0.3-0.3-0.6-0.6-0.6S292.1,323.4,292.1,323.7L292.1,323.7z M298.1,323.7c0,0.3,0.3,0.6,0.6,0.6s0.6-0.3,0.6-0.6
	c0-0.3-0.3-0.6-0.6-0.6S298.1,323.4,298.1,323.7L298.1,323.7z M469.8,325.9c0,0.3,0.3,0.6,0.6,0.6s0.6-0.3,0.6-0.6
	c0-0.3-0.3-0.6-0.6-0.6S469.8,325.6,469.8,325.9L469.8,325.9z M469.8,316.9c0,0.3,0.3,0.6,0.6,0.6s0.6-0.3,0.6-0.6s-0.3-0.6-0.6-0.6
	S469.8,316.6,469.8,316.9L469.8,316.9z M177.9,317.7c0,0.2,0.2,0.4,0.4,0.4s0.4-0.2,0.4-0.4s-0.2-0.4-0.4-0.4
	S177.9,317.4,177.9,317.7L177.9,317.7z M177.9,325.2c0,0.2,0.2,0.4,0.4,0.4s0.4-0.2,0.4-0.4s-0.2-0.4-0.4-0.4
	S177.9,324.9,177.9,325.2L177.9,325.2z M521.6,416.5c0,0.8,0.7,1.5,1.5,1.5s1.5-0.7,1.5-1.5s-0.7-1.5-1.5-1.5
	S521.6,415.6,521.6,416.5L521.6,416.5z M515,410.8c0,1.1,0.9,2.1,2.1,2.1s2.1-0.9,2.1-2.1s-0.9-2.1-2.1-2.1S515,409.6,515,410.8
	L515,410.8z M515.7,441.2c-0.2,0-0.4-0.2-0.4-0.4 M523.8,441.2h-8.1 M523.8,441.2v0.6 M515.3,440.9v-8.1 M515.4,432.8h-0.6
	 M514.8,432.7v9.1 M514.8,441.8h9 M515.3,440.5c0,0.4,0.3,0.8,0.8,0.8 M523.6,436.7c0-2.1-1.7-3.8-3.8-3.8 M523.6,436.7v4.5
	 M515.3,433h4.5 M522.9,436.5c0-1.7-1.4-3-3-3 M522.6,440.3c0.2,0,0.4-0.2,0.4-0.4 M516,440c0,0.2,0.2,0.4,0.4,0.4 M516.3,433.6
	c-0.2,0-0.4,0.2-0.4,0.4 M522.9,439.9v-3.4 M516,440l-0.1-6 M522.6,440.3l-6.2,0.1 M519.9,433.5h-3.6 M523.8,448.8v-7 M524,448.6
	v-6.8 M523.8,441.8h0.3 M174,420.1h58.9 M172.9,420.1h0.3 M172.9,419.7h0.3 M172.9,419.7v0.5 M528.2,334.2h0.9 M529.2,334.3v12.3
	 M173.2,364.2L173.2,364.2 M173.1,359.7v4.5 M173.2,359.7L173.2,359.7 M529.2,334.3C529.2,334.2,529.1,334.2,529.2,334.3
	 M529.2,389.8h-0.9 M528.3,389.6h0.9 M488,400.5h17.8 M191.7,400.9h-18 M191.7,400.6h-18 M488,400.8h17.8 M529.2,395.5h-0.9
	 M529.2,395.2h-0.9 M528.2,338.7v-0.2 M527.7,338.7h0.5 M528.2,329.9v8.6 M182.9,298.1l-0.2-0.3 M182.8,297.7l0.2,0.3 M182.7,297.8
	l0.1-0.1 M183,298l-0.1,0.1 M169.6,294.7l1.1,0.1 M170.7,295l-1.1-0.1 M170.7,294.8v0.2 M169.6,294.7v0.2 M181.1,296l1.6,1.9
	 M182.9,297.8l-1.6-1.9 M181.3,295.9l-0.1,0.1 M180.9,295.9v-0.2 M181.3,295.9c-0.1-0.1-0.2-0.2-0.3-0.2 M181.1,296
	c-0.1-0.1-0.1-0.1-0.2-0.1 M181,295.7l-10.3-0.9 M170.7,295l10.3,0.9 M173.7,310h-0.4 M183.7,299.4l-1.3,13.3 M173.7,310.1
	L173.7,310.1 M137.2,296.9l18.5-3.2 M134.6,297.1l2.5-0.2 M133.8,304.4V298 M182.9,298.1l0.6,0.7 M183.7,299.5
	c0-0.2-0.1-0.5-0.2-0.7 M155.9,293.7c-0.1,0-0.2,0-0.2,0 M137.2,296.9L137.2,296.9 M134.6,297.1c-0.5,0-0.9,0.4-0.9,0.9
	 M133.8,304.4c0,0.5,0.4,0.9,0.9,0.9 M157.6,307.3l1.2-13.4 M158.8,294l-2.9-0.3 M171,295l-1.2,13.4 M158.4,307.4l1.2-13.4
	 M158.8,293.9l0.8,0.1 M170.1,295l-1.2,13.4 M159.6,294l9.9,0.9 M173.7,362.8v0.4 M173.7,362.8h-0.5 M173.2,362.8v0.4 M173.7,363.2
	h-0.5 M173.7,357.5h-0.5 M173.7,357.1v0.4 M173.2,357.1h0.5 M173.2,357.1v0.4 M173.7,357.5v5.3 M173.2,357.5v5.3 M173.7,363.2v7.4
	 M173.7,379.2v10.6 M173.7,395v-5.1 M173.2,363.2v7.4 M173.2,407.9v-1 M173.2,406.9v-2.3 M173.2,389.9v5.1 M173.2,379.2v10.6
	 M173.2,406.9h0.3 M173.7,371.3v-0.8 M173.7,372.1v-0.8 M173.7,376.1v-0.6 M173.7,379.2v-0.6 M173.7,370.6h-0.5 M173.2,378.6v0.6
	 M173.2,375.5v0.6 M173.2,372.1v-0.8 M173.2,371.3v-0.8 M173.2,378.6h0.5 M173.2,379.2h0.5 M173.2,376.1h0.5 M173.2,375.5h0.5
	 M173.7,372.1h-0.5 M173.7,371.3h-0.5 M173.7,372.1v3.4 M173.7,378.7v-2.6 M173.2,378.7v-2.6 M173.2,375.5v-3.4 M173.7,389.9v-0.1
	 M173.7,395v0.9 M173.7,396.6v-0.8 M173.7,400v-1.3 M173.7,404.3v0.2 M173.7,423v-0.1 M173.7,423v0.2 M173.7,424.8v0.4 M173.7,432
	v-0.5 M173.7,311.6v-1.5 M173.2,311.6v-1.5 M173.2,432v-0.5 M173.2,425.2v-0.4 M173.2,423v0.2 M173.2,423v-0.8 M173.2,416.8v0.6
	 M173.2,407.9v1.1 M173.2,404.6v-0.3 M173.2,400v-1.3 M173.2,396.6v-0.8 M173.2,395.9V395 M173.2,389.9v-0.1 M173.2,389.8h0.5
	 M173.2,310.1h0.5 M173.2,311.6h0.5 M173.2,398.7h0.5 M173.2,400h0.5 M173.7,404.3h-0.5 M173.2,404.6h0.3 M173.5,409h-0.3
	 M173.5,407.9h-0.3 M173.5,416.8h-0.3 M173.2,423.2h0.5 M173.7,423h-0.5 M173.2,425.2h0.5 M173.7,424.8h-0.5 M173.7,431.5h-0.5
	 M173.7,395h-0.5 M173.7,395.9h-0.5 M173.2,396.6h0.5 M173.2,422.3h0.3 M173.5,417.4h-0.3 M173.7,396.6v2.1 M173.7,400v4.3
	 M173.7,357.1v-45.5 M173.2,311.6v45.5 M173.2,416.8V409 M173.2,400v4.3 M173.2,396.6v2.1 M173.7,423.2v1.6 M173.7,431.5v-6.3
	 M173.2,431.5v-6.3 M173.2,424.8v-1.6 M173,408.8v-85 M172.9,312.8h0.1 M172.9,408.8v-96 M172.9,408.8h0.1 M170.8,312.8h2.1
	 M170.8,408.8v-96 M170.8,408.8h2.1 M173,323.2v0.5 M173,314.1v0.4 M173,314.1h0.2 M173,314.5h0.2 M173,323.2h0.2 M173.2,323.7H173
	 M169.2,308.6l-0.8-0.1 M169.2,308.6v-0.2 M168.5,308.3l0.8,0.1 M168.4,308.5v-0.2 M157.2,307.5l0.8,0.1 M158,307.6v-0.2
	 M136.6,296.6l0.9-0.1 M136.6,296.6v0.2 M137.5,296.7l-0.9,0.1 M137.5,296.5v0.2 M173,323.2v-8.7 M173,309.8v4.3 M173.2,310.1v-0.3
	 M173.2,309.8H173 M172.2,308.8v-0.2 M134.7,305.3l37.6,3.5 M133.8,304.4c0,0.5,0.4,0.9,0.9,0.9 M133.8,297.9v6.5 M134.6,297
	c-0.5,0-0.9,0.4-0.9,0.9 M134.7,297l1.9-0.2 M136.6,296.6l-1.9,0.2 M134.6,296.8c-0.6,0.1-1,0.5-1,1.1 M133.6,304.4v-6.5
	 M133.6,304.4c0,0.6,0.4,1.1,1,1.1 M173,309.8c0-0.5-0.4-0.9-0.9-0.9 M514.5,431.8h2.7 M174,431.8v0.2 M232.9,420.4H174 M174,422.9
	v8.9 M292.8,317.7c-0.5,0-1,0.3-1.3,0.8 M285.3,329.1c-0.1,0.2,0,0.4,0.1,0.5c0.1,0,0.1,0,0.2,0 M305.7,329.7c0.2,0,0.4-0.2,0.4-0.4
	c0-0.1,0-0.1,0-0.2 M299.8,318.4c-0.3-0.5-0.8-0.8-1.3-0.8 M292.7,317.7h5.8 M285.3,329.1l6.2-10.7 M306,329.1l-6.2-10.7
	 M469.7,313.2c-0.8,0-1.5,0.7-1.5,1.5 M468.2,329.3c0,0.2,0.2,0.4,0.4,0.4 M468.2,314.7v14.6 M473.6,313.2h-3.9 M474.2,313.2h-0.6
	 M513.6,432.1h0.2 M528.5,432.1h-0.2 M521.2,432.1v0.6 M528.2,432.7v-0.6 M528.6,432.7h-0.4 M528.6,432.7v-0.6 M521,432.7L521,432.7
	 M513.8,432.7h-0.2 M521,432.1v0.6 M513.8,432.1v0.6 M513.6,432.1v0.6 M513.8,432.1h3.9 M513.8,432.7h7.2 M523.6,432.1v0.6
	 M524.1,432.7h-0.5 M524.1,432.7v-0.6 M525.5,432.7H525 M525.5,432.1v0.6 M525,432.7v-0.6 M521.2,432.7h2.4 M528.2,432.7h-2.7
	 M525,432.7h-1 M514,432.1v-0.3 M514.5,432.2v-0.3 M514,431.9h0.6 M514.5,431.9v-2 M514,431.9v-2.4 M527.1,434.5
	c-1.2,0.2-2.2,0.8-2.9,1.8 M516.4,432.7c-0.2,0-0.3,0.1-0.4,0.3 M527.8,433.1c0-0.2-0.2-0.4-0.4-0.4 M527.5,434.4
	c0.2,0,0.3-0.2,0.3-0.4 M527.6,434.4l-0.5,0.1 M527.8,433.1v0.9 M523.6,437.1l0.6-0.8 M181,317.7c0-1.7-1.3-3-3-3 M180.8,329.7
	c0.1,0,0.2-0.1,0.2-0.2 M173.7,329.5c0,0.1,41.3,0.2,41.4,0.2 M173.9,314.7c-0.1,0-0.2,0.1-0.2,0.2 M173.9,314.7h4.1 M181,329.5
	v-11.8 M191.7,353.4h0.2 M191.9,353.4V351 M191.7,351h0.2 M191.7,353.4V351 M191.4,350.7h-17.7 M191.7,351c0-0.1-0.1-0.3-0.3-0.3
	c0,0,0,0-0.1,0 M191.9,351c0-0.2-0.2-0.3-0.5-0.3 M191.9,351v-3.3 M191.4,347.7v3 M191.9,347.7h-0.5 M190.2,348.1
	c0,0.1,0.1,0.2,0.2,0.2s0.2-0.1,0.2-0.2 M190.6,348.1v-0.4 M190.2,347.7v0.4 M189.1,348.1c0,0.1,0.1,0.2,0.2,0.2s0.2-0.1,0.2-0.2
	 M189.5,347.7v0.4 M189.1,348.1v-0.4 M188,348.1c0,0.1,0.1,0.2,0.2,0.2s0.2-0.1,0.2-0.2 M188.3,347.7v0.4 M188,348.1v-0.4
	 M186.8,348.1c0,0.1,0.1,0.2,0.2,0.2s0.2-0.1,0.2-0.2 M187.2,348.1v-0.4 M186.8,347.7v0.4 M185.7,348.1c0,0.1,0.1,0.2,0.2,0.2
	s0.2-0.1,0.2-0.2 M186.1,347.7v0.4 M185.7,348.1v-0.4 M184.6,348.1c0,0.1,0.1,0.2,0.2,0.2s0.2-0.1,0.2-0.2 M185,348.1v-0.4
	 M184.6,348.1v-0.4 M183.5,348.1c0,0.1,0.1,0.2,0.2,0.2s0.2-0.1,0.2-0.2 M183.8,348.1v-0.4 M183.5,347.7v0.4 M182.3,348.1
	c0,0.1,0.1,0.2,0.2,0.2s0.2-0.1,0.2-0.2 M182.7,347.7v0.4 M182.3,347.7v0.4 M181.2,348.1c0,0.1,0.1,0.2,0.2,0.2s0.2-0.1,0.2-0.2
	 M181.6,348.1v-0.4 M181.2,348.1v-0.4 M180.1,348.1c0,0.1,0.1,0.2,0.2,0.2s0.2-0.1,0.2-0.2 M180.5,347.7v0.4 M180.1,347.7v0.4
	 M179,348.1c0,0.1,0.1,0.2,0.2,0.2s0.2-0.1,0.2-0.2 M179.3,347.7v0.4 M179,348.1v-0.4 M177.8,348.1c0,0.1,0.1,0.2,0.2,0.2
	s0.2-0.1,0.2-0.2 M178.2,348.1v-0.4 M177.8,348.1v-0.4 M176.7,348.1c0,0.1,0.1,0.2,0.2,0.2s0.2-0.1,0.2-0.2 M177.1,347.7v0.4
	 M176.7,347.7v0.4 M175.6,348.1c0,0.1,0.1,0.2,0.2,0.2s0.2-0.1,0.2-0.2 M176,347.7v0.4 M175.6,348.1v-0.4 M190.2,347.7h-0.8
	 M189.1,347.7h-0.8 M188,347.7h-0.8 M186.8,347.7H186 M185.7,347.7H185 M184.6,347.7h-0.8 M183.5,347.7h-0.8 M182.3,347.7h-0.8
	 M181.2,347.7h-0.8 M180.1,347.7h-0.8 M179,347.7h-0.8 M177.8,347.7H177 M176.7,347.7H176 M175.6,347.7h-0.8 M173.7,347.7h0.8
	 M190.6,347.7h0.8 M174.8,348.1v-0.4 M174.5,348.1c0,0.1,0.1,0.2,0.2,0.2s0.2-0.1,0.2-0.2 M174.5,347.7v0.4 M191.9,378h-0.2
	 M191.9,377.9v-2.4 M191.9,375.5h-0.2 M191.7,377.9v-2.4 M191.4,375.2h-17.7 M191.7,375.5c0-0.1-0.1-0.3-0.3-0.3c0,0,0,0-0.1,0
	 M191.9,375.5c0-0.2-0.2-0.3-0.5-0.3 M191.9,375.5v-3.3 M191.4,372.2v3 M191.4,372.2h0.5 M190.2,372.6c0,0.1,0.1,0.2,0.2,0.2
	s0.2-0.1,0.2-0.2 M190.6,372.6v-0.4 M190.2,372.2v0.4 M189.1,372.6c0,0.1,0.1,0.2,0.2,0.2s0.2-0.1,0.2-0.2 M189.5,372.2v0.4
	 M189.1,372.6v-0.4 M188,372.6c0,0.1,0.1,0.2,0.2,0.2s0.2-0.1,0.2-0.2 M188.3,372.2v0.4 M188,372.6v-0.4 M186.8,372.6
	c0,0.1,0.1,0.2,0.2,0.2s0.2-0.1,0.2-0.2 M187.2,372.6v-0.4 M186.8,372.2v0.4 M185.7,372.6c0,0.1,0.1,0.2,0.2,0.2s0.2-0.1,0.2-0.2
	 M186.1,372.2v0.4 M185.7,372.6v-0.4 M184.6,372.6c0,0.1,0.1,0.2,0.2,0.2s0.2-0.1,0.2-0.2 M185,372.6v-0.4 M184.6,372.6v-0.4
	 M183.5,372.6c0,0.1,0.1,0.2,0.2,0.2s0.2-0.1,0.2-0.2 M183.8,372.6v-0.4 M183.5,372.2v0.4 M182.3,372.6c0,0.1,0.1,0.2,0.2,0.2
	s0.2-0.1,0.2-0.2 M182.7,372.2v0.4 M182.3,372.2v0.4 M181.2,372.6c0,0.1,0.1,0.2,0.2,0.2s0.2-0.1,0.2-0.2 M181.6,372.6v-0.4
	 M181.2,372.6v-0.4 M180.1,372.6c0,0.1,0.1,0.2,0.2,0.2s0.2-0.1,0.2-0.2 M180.5,372.2v0.4 M180.1,372.2v0.4 M179,372.6
	c0,0.1,0.1,0.2,0.2,0.2s0.2-0.1,0.2-0.2 M179.3,372.2v0.4 M179,372.6v-0.4 M177.8,372.6c0,0.1,0.1,0.2,0.2,0.2s0.2-0.1,0.2-0.2
	 M178.2,372.6v-0.4 M177.8,372.6v-0.4 M176.7,372.6c0,0.1,0.1,0.2,0.2,0.2s0.2-0.1,0.2-0.2 M177.1,372.2v0.4 M176.7,372.2v0.4
	 M175.6,372.6c0,0.1,0.1,0.2,0.2,0.2s0.2-0.1,0.2-0.2 M176,372.2v0.4 M175.6,372.6v-0.4 M189.5,372.2h0.8 M188.3,372.2h0.8
	 M187.2,372.2h0.8 M186.1,372.2h0.8 M185,372.2h0.8 M183.8,372.2h0.8 M182.7,372.2h0.8 M181.6,372.2h0.8 M180.5,372.2h0.8
	 M179.3,372.2h0.8 M178.2,372.2h0.8 M177.1,372.2h0.8 M176,372.2h0.8 M174.8,372.2h0.8 M173.7,372.2h0.8 M190.6,372.2h0.8
	 M174.8,372.6v-0.4 M174.5,372.6c0,0.1,0.1,0.2,0.2,0.2s0.2-0.1,0.2-0.2 M174.5,372.2v0.4 M191.9,401.4L191.9,401.4 M191.9,401.4
	h-0.2 M191.7,401.4L191.7,401.4 M191.7,401.4h0.2 M191.9,399.5v1.9 M191.9,399.5h-0.2 M191.7,399.5v1.9 M173.7,399.4h17.7
	 M191.7,399.5c0-0.1-0.1-0.1-0.3-0.1c0,0,0,0-0.1,0 M191.9,399.5c0-0.1-0.2-0.1-0.5-0.1 M191.9,396.4v3.1 M191.4,396.4v3
	 M191.9,396.4h-0.5 M190.2,396.7c0,0.1,0.1,0.2,0.2,0.2s0.2-0.1,0.2-0.2 M190.6,396.8v-0.4 M190.2,396.3v0.4 M189.1,396.7
	c0,0.1,0.1,0.2,0.2,0.2s0.2-0.1,0.2-0.2 M189.5,396.4v0.4 M189.1,396.7v-0.4 M188,396.7c0,0.1,0.1,0.2,0.2,0.2s0.2-0.1,0.2-0.2
	 M188.3,396.4v0.4 M188,396.7v-0.4 M186.8,396.7c0,0.1,0.1,0.2,0.2,0.2s0.2-0.1,0.2-0.2 M187.2,396.8v-0.4 M186.8,396.3v0.4
	 M185.7,396.7c0,0.1,0.1,0.2,0.2,0.2s0.2-0.1,0.2-0.2 M186.1,396.4v0.4 M185.7,396.7v-0.4 M184.6,396.7c0,0.1,0.1,0.2,0.2,0.2
	s0.2-0.1,0.2-0.2 M185,396.8v-0.4 M184.6,396.7v-0.4 M183.5,396.7c0,0.1,0.1,0.2,0.2,0.2s0.2-0.1,0.2-0.2 M183.8,396.8v-0.4
	 M183.5,396.3v0.4 M182.3,396.7c0,0.1,0.1,0.2,0.2,0.2s0.2-0.1,0.2-0.2 M182.7,396.4v0.4 M182.3,396.3v0.4 M181.2,396.7
	c0,0.1,0.1,0.2,0.2,0.2s0.2-0.1,0.2-0.2 M181.6,396.8v-0.4 M181.2,396.7v-0.4 M180.1,396.7c0,0.1,0.1,0.2,0.2,0.2s0.2-0.1,0.2-0.2
	 M180.5,396.4v0.4 M180.1,396.3v0.4 M179,396.7c0,0.1,0.1,0.2,0.2,0.2s0.2-0.1,0.2-0.2 M179.3,396.4v0.4 M179,396.7v-0.4
	 M177.8,396.7c0,0.1,0.1,0.2,0.2,0.2s0.2-0.1,0.2-0.2 M178.2,396.8v-0.4 M177.8,396.7v-0.4 M176.7,396.7c0,0.1,0.1,0.2,0.2,0.2
	s0.2-0.1,0.2-0.2 M177.1,396.4v0.4 M176.7,396.3v0.4 M175.6,396.7c0,0.1,0.1,0.2,0.2,0.2s0.2-0.1,0.2-0.2 M176,396.4v0.4
	 M175.6,396.7v-0.4 M190.2,396.4h-0.8 M189.1,396.4h-0.8 M188,396.4h-0.8 M186.8,396.4H186 M185.7,396.4H185 M184.6,396.4h-0.8
	 M183.5,396.4h-0.8 M182.3,396.4h-0.8 M181.2,396.4h-0.8 M180.1,396.4h-0.8 M179,396.4h-0.8 M177.8,396.4H177 M176.7,396.4H176
	 M175.6,396.4h-0.8 M174.5,396.4h-0.8 M191.4,396.4h-0.8 M174.8,396.8v-0.4 M174.5,396.7c0,0.1,0.1,0.2,0.2,0.2s0.2-0.1,0.2-0.2
	 M174.5,396.3v0.4 M528.3,415.8v1.5 M528.3,417.3L528.3,417.3 M528.3,415.8L528.3,415.8 M528.3,417.3L528.3,417.3 M528.3,415.7
	L528.3,415.7 M529.5,399.9c4.1,9.7,8.2,19.4,12.3,29.1 M528.3,400.6h1 M541.1,432.1h-12.6 M528.3,432c0,0.1,0.1,0.2,0.2,0.2
	 M541.1,432.1c0.4,0,0.8-0.3,0.8-0.8 M541.8,429.3c0-0.1,0-0.2-0.1-0.3 M541.8,431.5c0.6-0.8,0.5-1.9-0.1-2.7 M528.3,338.7v65.5
	 M528.3,415.7v-9.2 M528.3,417.3v11.6 M528.3,431.3v0.9 M505.8,423.8v-3.7 M505.8,410.3v-71.6 M527,338.7h0.6 M528.1,338.7h0.2
	 M527,338.7v93.5 M507.1,338.7v73.6 M507.1,420.1v4.6 M506.5,338.7h0.6 M528.3,432.1H527 M527,432.1h-9.3 M528.3,415.7v1.6
	 M528.3,415.7L528.3,415.7 M528.3,417.3L528.3,417.3 M528.3,428.9v2.4 M528.3,404.1v2.4 M527,338.7h-19.9 M507.1,424.7l10.6,7.4
	 M507.1,424.7l-1.3-0.9 M171,432.7h17.2 M174,425.2h-0.3 M170.9,425.2h2.3 M170.9,432v-6.8 M223.4,432h-52.5 M170.9,431.9v0.8
	 M223.4,431.9v0.8 M173.2,423.9h-2 M174,423.9h-0.3 M171.2,423.4h2 M173.7,423.4h0.3 M171.2,423.4v0.5 M171.2,423.9v1.3
	 M188.2,432.7h40.9 M173.2,393H173 M171.2,422.1v-13.3 M171.2,423.5v-0.9 M173.2,422.1h-2 M171.2,422.4v-0.3 M173.2,422.4h-2
	 M171.2,422.4v0.1 M171.2,422.6h2 M529.2,330.6c0-0.3-0.1-0.7-0.4-0.9 M529.2,347.3v53.3 M529.2,347.3v-0.4 M529.2,346.9v-0.4
	 M529.2,330.5v16 M226.2,432.1v0.6 M226.2,432.1H226 M511,432.1h-0.2 M511,432.1v0.6 M510.8,432.1v0.6 M511,432.7h-0.2 M226,432.1
	v0.6 M505.8,420.1v-1.3 M505.8,415.5v-1 M174,404.5L174,404.5 M505.8,415.5v3.3 M505.8,410.3v0.2 M505.8,414.5V413 M505.5,423.4h0.4
	 M505.5,423.4v0.4 M505.9,423.8h-0.4 M505.5,420.1v3.3 M173.5,422.9L173.5,422.9 M174,422.9h-0.5 M174,422.9L174,422.9 M173.5,419.5
	v0.6 M173.5,414.2v0.6 M173.5,404.6L173.5,404.6 M173.5,404.6h0.5 M174,404.5L174,404.5 M173.5,414.2h0.5 M174,420.1v-0.6
	 M174,419.5h-0.5 M174,414.8h-0.5 M174,414.2v0.6 M174,404.5h-0.5 M173.5,422.9h0.5 M173.5,420.1v2.7 M174,420.1h-0.5 M174,420.1
	v2.7 M173.5,419.5v-4.7 M173.5,404.6v9.6 M174,404.6v9.6 M174,414.8v4.7 M505.8,418.8v-3.3 M505.8,413v-2.5 M505.7,410.6l0.1-0.1
	 M508.7,420.1c1.1,0,2-0.6,2-1.3 M510.7,415.5v3.3 M510.7,415.5c0-0.3-0.2-0.6-0.5-0.8 M506.1,411l-0.3-0.5 M507.1,412.3l3.1,2.4
	 M506.1,411c0.2,0.5,0.6,1,1,1.3 M505.8,420.1h2.9 M510.7,418.8h-4.9 M505.8,415.5h4.9 M510.3,414.7h-4.4 M474.2,317.5v-4.7
	 M243.3,420H505 M505.5,389.7H320.1 M319.6,389.4h185.8 M488,400.7H336.8 M487.8,400.5H336.5 M505.5,395.3H328.6 M328.2,395.1h177.3
	 M228.3,329.6h239.2 M228.4,329.8c99.3-0.4,143.9-0.4,242.7,0 M243.2,338.4c95.5-0.1,121.3-0.1,216.2,0 M497.7,338.3c10,0,20,0,30,0
	 M473.9,338.4c9.3,0,42.3,0.1,51.6,0.2 M173.9,431.7H515 M219.4,432h295.1 M505,420.4H228.1 M203.4,312.7H474 M511.3,432H235.2
	 M224.4,432.6h289.1 M173.9,420h331.6 M505.4,418.7H173.9 M505.4,415.4H173.9 M173.9,414.3h331.6 M351.9,404.7h153.5 M352,404.4
	h153.4 M173.6,312.7h16.8 M473.6,313.2c0,5.4,0,9.3,0,14.7 M474.2,313.2c0,5.5,0,9,0,14.5 M456.8,345.2c-0.1-0.1-0.1-0.3-0.1-0.5
	s0-0.4,0.1-0.5c0.2-0.6,0.8-1,1.4-1c0.8,0,1.5,0.7,1.5,1.5s-0.7,1.5-1.5,1.5C457.6,346.2,457,345.8,456.8,345.2z M483.9,321.8
	c-1,0-1.9,0.3-2.7,0.9 M528,330c0.2,0,0.4-0.2,0.4-0.4 M528.4,322.2c0-0.2-0.2-0.4-0.4-0.4 M488,330c-1.9,0-3.8,0.6-5.3,1.8
	 M455.1,347.4c1.2,1.7,3.6,2,5.2,0.8 M455.5,341.6c-0.8,0.6-1.3,1.4-1.5,2.3c-0.1,0.5-0.1,1,0,1.5s0.3,1,0.6,1.5 M481.2,322.7
	l-25.7,18.9 M528.4,322.2v7.5 M483.9,321.8H528 M528,330h-40 M482.7,331.8l-22.3,16.4 M455.1,347.4l-0.4-0.6 M456.8,344.7
	c0-0.8,0.7-1.5,1.5-1.5s1.5,0.7,1.5,1.5s-0.7,1.5-1.5,1.5C457.4,346.1,456.8,345.5,456.8,344.7z M456.9,344.7c0-0.7,0.6-1.3,1.3-1.3
	c0.7,0,1.3,0.6,1.3,1.3c0,0.7-0.6,1.3-1.3,1.3S456.9,345.4,456.9,344.7z M457.5,344.7c0-0.4,0.3-0.8,0.8-0.8c0.4,0,0.8,0.3,0.8,0.8
	c0,0.4-0.3,0.8-0.8,0.8C457.8,345.4,457.5,345.1,457.5,344.7z M391.8,343.4c0-0.8,0.7-1.5,1.5-1.5s1.5,0.7,1.5,1.5s-0.7,1.5-1.5,1.5
	C392.5,344.8,391.8,344.2,391.8,343.4z M392,343.4c0-0.7,0.6-1.3,1.3-1.3c0.7,0,1.3,0.6,1.3,1.3c0,0.7-0.6,1.3-1.3,1.3
	C392.6,344.6,392,344.1,392,343.4z M392.5,343.4c0-0.4,0.3-0.8,0.8-0.8c0.4,0,0.8,0.3,0.8,0.8c0,0.4-0.3,0.8-0.8,0.8
	C392.8,344.1,392.5,343.8,392.5,343.4z M457.5,344.7c0-0.4,0.3-0.8,0.8-0.8c0.4,0,0.8,0.3,0.8,0.8c0,0.4-0.3,0.8-0.8,0.8
	C457.8,345.4,457.5,345.1,457.5,344.7z M457.6,344.7c0-0.4,0.3-0.7,0.6-0.7c0.4,0,0.7,0.3,0.7,0.7c0,0.4-0.3,0.6-0.7,0.6
	C457.9,345.3,457.6,345,457.6,344.7z M450.7,340.6l-52.5-1.1 M450.6,348.5l-52.5-1.1 M451.8,341.7v2.1l-0.1,1.5v2.1 M451.5,347.5
	l0.2-0.1 M451.8,341.7l-0.2-0.2 M450.6,348.6v-0.1l0.1-7.9v-0.1 M450.9,348.6h-0.3 M451.1,340.5L451.1,340.5h-0.4 M450.9,349v-0.4
	v-0.3 M450.9,349h0.6 M451.5,349v-0.7 M451.5,348.3h-0.6 M451.6,340.8h-0.5 M451.6,340.8l0.1-0.8 M451.1,340v0.5v0.3 M451.7,340
	h-0.6 M451.5,348.3v-0.8l0.1-6v-0.7 M450.9,348.3l0.2-7.5 M396.9,347.9v-0.7 M396.9,347.9l0.6,0.1 M397.5,347.2v0.3v0.5
	 M396.9,347.2h0.6 M397.1,339.7h0.6 M397.7,339.7v-0.3V339 M397.1,339.7V339 M397.7,339h-0.6 M397.7,339.7l-0.2,7.5 M397,345.8
	l-0.1,1.4 M397.1,339.7v1.4l-0.1,4.7 M398.2,339.4L398.2,339.4l-0.1,8v0.1 M397.7,339.4h0.5 M397.5,347.5h0.6 M397.1,341.1
	C397.1,341.1,397,341,397.1,341.1C397,341,397,341,397,341 M396.9,345.8c0,0,0.1,0,0.1-0.1l0,0 M396.9,345.8l-2-0.5 M395,341.5
	l2-0.5 M454,343.9v-0.1 M454,345.3v-0.1 M451.8,343.8h2.2 M451.7,345.3h2.3 M454,345.3L454,345.3 M456.8,345.1v0.1 M456.8,344.1v0.1
	 M391.8,343.4c0-0.8,0.7-1.5,1.5-1.5s1.5,0.7,1.5,1.5s-0.7,1.5-1.5,1.5C392.4,344.9,391.8,344.2,391.8,343.4z M393.5,346.2
	c0.6,0,1.1-0.4,1.4-0.9l0,0c0.1-0.2,0.1-0.4,0.1-0.6 M395,338.8C395,338.7,395,338.7,395,338.8 M389.1,338.7c-0.1,0-0.1,0-0.1,0.1
	 M389,346.1c0,0.1,0,0.1,0.1,0.1 M393.5,346.2h-4.4 M395,344.7v-3.2v-2.7 M389.1,338.7h5.9 M389,338.8v7.3 M392.5,343.4
	c0-0.4,0.3-0.8,0.8-0.8c0.4,0,0.8,0.3,0.8,0.8c0,0.4-0.3,0.8-0.8,0.8C392.9,344.1,392.5,343.8,392.5,343.4z M392.6,343.4
	c0-0.4,0.3-0.6,0.7-0.6c0.4,0,0.6,0.3,0.6,0.6c0,0.4-0.3,0.7-0.6,0.7C392.9,344,392.6,343.7,392.6,343.4z M389,346.1l-9.3-7.4
	 M389.1,338.7h-9.4 M482.3,326.1c0-0.8,0.7-1.5,1.5-1.5s1.5,0.7,1.5,1.5s-0.7,1.5-1.5,1.5C483,327.7,482.3,327,482.3,326.1z
	 M522.8,327c-0.3-0.3-0.5-0.6-0.5-1.1c0-0.8,0.7-1.5,1.5-1.5s1.5,0.7,1.5,1.5c0,0.4-0.2,0.8-0.5,1.1 M522.8,327
	c-0.3-0.3-0.4-0.6-0.4-1.1c0-0.8,0.7-1.5,1.5-1.5s1.5,0.7,1.5,1.5c0,0.4-0.2,0.8-0.4,1.1s-0.6,0.4-1.1,0.4S523.1,327.3,522.8,327z
	 M522.6,325.9c0-0.7,0.6-1.3,1.3-1.3s1.3,0.6,1.3,1.3c0,0.7-0.6,1.3-1.3,1.3C523.1,327.2,522.6,326.6,522.6,325.9z M528.7,420.4h0.3
	h0.1 M528.7,346.9v-0.3 M528.7,347.3v-0.4 M528.7,420.3v0.1 M529.2,420.4v-0.1 M528.7,420.3h0.5 M528.7,347.3h0.5 M529.2,346.6h-0.5
	 M529.2,346.6v0.3 M528.7,346.9h0.5 M529.2,347.3v-0.4 M528.7,330.5v0.1v3.4v0.3v12.3 M528.7,420.3v-73 M529.2,420.3v-1v-0.8v-11
	v-0.7v-0.3v-59.2 M529,420.4v0.3 M529.4,420.4h-0.2h-0.1 M529.4,420.7v-0.3 M529.4,420.7H529 M529.2,406.8l0.2,0.3 M529.4,406.7
	l-0.2,0.1 M529.6,407L529.6,407l-0.2-0.3 M529.4,407.1l0.2-0.1 M529.4,420.4h0.9h0.9h1.4h0.1 M532.7,420.4v0.3 M529.4,420.7h3.3
	 M529.4,407.1l4,4.8 M533.6,411.7l-0.3-0.3l-3.7-4.4 M533.4,411.9l0.2-0.2 M533.7,419.5v-7 M533.7,412.5h0.2 M533.9,419.5v-7
	 M533.7,419.5h0.2 M533.9,412.5c0-0.3-0.1-0.5-0.3-0.8 M533.7,412.5c0-0.2-0.1-0.4-0.2-0.6 M532.7,420.7c0.7,0,1.2-0.5,1.2-1.2
	 M532.7,420.4c0.5,0,0.9-0.4,0.9-0.9 M529.2,406.5l0.2,0.2 M533.6,411.7l0.1,0.1 M529.2,346.6v-0.7 M529.6,345.9v61 M533.7,411.8
	v-65.9 M533.3,411.4v-65.5 M528.8,331.2c0-0.2,0-0.4-0.1-0.6l0,0c-0.1-0.3-0.2-0.5-0.4-0.8 M533.7,345.9c0.2,0,0.4-0.2,0.4-0.4
	 M528.8,345.5c0,0.2,0.2,0.4,0.4,0.4 M534.1,328.9c0-3.2-2.5-5.9-5.7-6 M528.8,331.2v14.3 M529.2,345.9h0.4h3.7h0.4 M534.1,328.9
	v16.6 M532.6,420.4c0.6,0,1-0.5,1-1 M533.6,412.6c0-0.2-0.1-0.5-0.2-0.7 M529.5,407.4c-0.1-0.1-0.2-0.1-0.3,0l-0.1,0.1 M533.4,412
	l-3.9-4.6 M533.6,419.4v-6.8 M531.2,420.4c0.5-0.6,0.5-1.5,0-2s-1.4-0.5-2,0 M529.2,419.3c0-0.6,0.5-1.1,1.1-1.1s1.1,0.5,1.1,1.1
	s-0.5,1.1-1.1,1.1S529.2,419.9,529.2,419.3z M528.3,329.8l0.1-6.9 M530.8,442.5l0.3,1.1 M530,440l-0.1,0.6 M529.2,443.4l0.5,0.5
	 M529.3,441.8l-0.5,1.3 M529.2,443.4v0.1c0,0.2,0.2,0.4,0.4,0.4c0.1,0,0.1,0,0.2,0 M529.8,444L529.8,444c0.1-0.1,0.2-0.3,0.2-0.4
	c0-0.2-0.2-0.4-0.4-0.4s-0.3,0.1-0.4,0.3l-0.1-0.1 M529.8,444c0.2-0.1,0.2-0.2,0.2-0.4c0-0.3-0.2-0.5-0.5-0.5
	c-0.2,0-0.4,0.1-0.5,0.3 M529.1,443.3L529.1,443.3c0,0.1,0,0.2,0,0.2c0,0.3,0.2,0.5,0.5,0.5c0.1,0,0.2,0,0.2-0.1l0,0 M528.8,443.1
	l0.2,0.2c0,0.1,0,0.1,0,0.2c0,0.3,0.2,0.5,0.5,0.5c0.1,0,0.2,0,0.3-0.1l0.2,0.2 M527.9,438.7l0.2,1.1 M527.8,435v0.1 M530.8,441.9
	l-0.1-0.2l-0.3-0.4 M530.3,441.4l0.1-0.1 M530.3,441.4l0.2,0.3v0.1l0.1,0.2 M530.6,442l0.2-0.1 M530,440.6l0.4,0.7 M530.3,441.4
	l-0.4-0.8 M529.9,440.6L529.9,440.6 M530.1,440.2c-0.1,0.1-0.2,0.3-0.1,0.4 M530.1,440.2L530,440 M530,440c-0.2,0.1-0.3,0.4-0.2,0.6
	 M537.3,435.9l-6.4,3.8l-0.8,0.5 M537.2,435.8l0.1,0.1 M537.2,435.8l-5.3,3.1l-1.2,0.7L530,440 M537.5,435.6v-3.4 M537.5,435.6h-0.2
	 M537.3,435.6v-3.4 M537.2,435.8c0.1-0.1,0.1-0.1,0.1-0.2 M537.3,435.9c0.1-0.1,0.2-0.2,0.2-0.4 M528.8,443.1
	c0.2-0.4,0.4-0.8,0.5-1.2 M530.1,443.6c0,0.2-0.1,0.3-0.2,0.4 M529.1,443.3c0.1-0.2,0.3-0.3,0.5-0.3s0.5,0.2,0.5,0.4 M528.8,443.1
	c-0.2,0.4-0.1,0.9,0.3,1.2c0.3,0.2,0.7,0.2,1-0.1 M530.4,441.9l0.1-0.2 M527.9,438.7V436 M528.8,432.4h-0.7H528h-0.1 M527.8,433.7
	v-0.5V433 M527.8,435v-0.5v-0.2 M527.8,434.3v-0.5v-0.1 M530.1,443.6L530.1,443.6v0.6v32.9 M530.1,443.6c0-0.1,0-0.1,0-0.2
	c0-0.2-0.1-0.3-0.2-0.5 M531.1,443.6v33.5 M527.9,432.4v3.6 M527.9,438.7c0,0.4,0.1,0.8,0.3,1.1 M529.9,442.9l-0.6-1.1l-1.2-2
	 M530.8,442.5l-0.4-0.6l0.1-0.1l0.2-0.1l2.6-1.5l-2.4-0.5l-0.2-0.1l-1.7-0.3 M531.1,443.6c0-0.4-0.1-0.8-0.3-1.1 M528.8,438.7
	c0,0.2,0.1,0.4,0.2,0.6 M530.1,477.1h1 M528.8,438.7v-6.3"/>

</g>
<g id="front" style="stroke:white;">
	<path class="st2" d="M23.8,466.5c0-1.7,1.3-3,3-3s3,1.3,3,3s-1.3,3-3,3S23.8,468.2,23.8,466.5L23.8,466.5z M9.9,466.5
		c0,9.3,7.6,16.9,16.9,16.9s16.9-7.6,16.9-16.9s-7.6-16.9-16.9-16.9S9.9,457.2,9.9,466.5L9.9,466.5z M9.7,466.5
		c0,9.4,7.7,17.1,17.1,17.1s17.1-7.7,17.1-17.1c0-9.4-7.7-17.1-17.1-17.1S9.7,457.1,9.7,466.5L9.7,466.5z M8.8,466.5
		c0,9.9,8.1,18,18,18s18-8.1,18-18c0-9.9-8.1-18-18-18S8.8,456.6,8.8,466.5L8.8,466.5z M8.4,466.5c0,10.1,8.2,18.4,18.4,18.4
		s18.4-8.2,18.4-18.4s-8.2-18.4-18.4-18.4S8.4,456.4,8.4,466.5L8.4,466.5z M17.2,466.5c0,5.3,4.3,9.5,9.5,9.5s9.5-4.3,9.5-9.5
		c0-5.3-4.3-9.5-9.5-9.5S17.2,461.3,17.2,466.5L17.2,466.5z M17.4,466.5c0,5.2,4.2,9.4,9.4,9.4s9.4-4.2,9.4-9.4
		c0-5.2-4.2-9.4-9.4-9.4S17.4,461.3,17.4,466.5L17.4,466.5z M14.4,469.8l0.6-0.3l0.5-0.5l0.4-0.6l0.3-0.7l0.1-0.8l0-0.8l-0.1-0.8
		l-0.2-0.7l-0.4-0.6l-0.5-0.5l-0.6-0.3l-0.7,0l-0.6,0.3l-0.5,0.5l-0.4,0.6l-0.3,0.7l-0.1,0.8l0,0.8l0.1,0.8l0.3,0.8l0.4,0.6l0.5,0.5
		l0.6,0.3L14.4,469.8 M39.1,463.2l-0.6,0.3L38,464l-0.4,0.6l-0.3,0.7l-0.1,0.8l0,0.8l0.1,0.8l0.2,0.7L38,469l0.5,0.5l0.6,0.3l0.7,0
		l0.6-0.3l0.5-0.5l0.4-0.6l0.3-0.7l0.1-0.8l0-0.8l-0.1-0.8l-0.3-0.8L41,464l-0.5-0.5l-0.6-0.3L39.1,463.2 M17.7,466.5
		c0,5,4.1,9.1,9.1,9.1s9.1-4.1,9.1-9.1c0-5-4.1-9.1-9.1-9.1S17.7,461.5,17.7,466.5L17.7,466.5z M20.8,466.5c0,3.3,2.7,6,6,6
		s6-2.7,6-6s-2.7-6-6-6S20.8,463.2,20.8,466.5L20.8,466.5z M26,459c0,0.4,0.3,0.8,0.8,0.8s0.8-0.3,0.8-0.8s-0.3-0.8-0.8-0.8
		S26,458.6,26,459L26,459z M21.6,460.5c0,0.4,0.3,0.8,0.8,0.8s0.8-0.3,0.8-0.8s-0.3-0.8-0.8-0.8S21.6,460,21.6,460.5L21.6,460.5z
		 M18.9,464.2c0,0.4,0.3,0.8,0.8,0.8s0.8-0.3,0.8-0.8s-0.3-0.8-0.8-0.8S18.9,463.8,18.9,464.2L18.9,464.2z M18.9,468.8
		c0,0.4,0.3,0.8,0.8,0.8s0.8-0.3,0.8-0.8s-0.3-0.8-0.8-0.8S18.9,468.4,18.9,468.8L18.9,468.8z M21.6,472.6c0,0.4,0.3,0.8,0.8,0.8
		s0.8-0.3,0.8-0.8s-0.3-0.8-0.8-0.8S21.6,472.2,21.6,472.6L21.6,472.6z M26,474c0,0.4,0.3,0.8,0.8,0.8s0.8-0.3,0.8-0.8
		s-0.3-0.8-0.8-0.8S26,473.6,26,474L26,474z M30.4,472.6c0,0.4,0.3,0.8,0.8,0.8c0.4,0,0.8-0.3,0.8-0.8s-0.3-0.8-0.8-0.8
		S30.4,472.2,30.4,472.6L30.4,472.6z M33.1,468.8c0,0.4,0.3,0.8,0.8,0.8s0.8-0.3,0.8-0.8s-0.3-0.8-0.8-0.8S33.1,468.4,33.1,468.8
		L33.1,468.8z M33.1,464.2c0,0.4,0.3,0.8,0.8,0.8s0.8-0.3,0.8-0.8s-0.3-0.8-0.8-0.8S33.1,463.8,33.1,464.2L33.1,464.2z M30.4,460.5
		c0,0.4,0.3,0.8,0.8,0.8c0.4,0,0.8-0.3,0.8-0.8s-0.3-0.8-0.8-0.8S30.4,460,30.4,460.5L30.4,460.5z M8,466.5
		c0,10.4,8.4,18.8,18.8,18.8s18.7-8.4,18.7-18.8c0-10.4-8.4-18.8-18.8-18.8S8,456.2,8,466.5L8,466.5z M-4.7,466.5
		c0,17.4,14.1,31.5,31.5,31.5s31.5-14.1,31.5-31.5c0-17.4-14.1-31.5-31.5-31.5S-4.7,449.1-4.7,466.5L-4.7,466.5z M-4.4,466.5
		c0,17.2,13.9,31.1,31.1,31.1s31.1-13.9,31.1-31.1s-13.9-31.1-31.1-31.1S-4.4,449.3-4.4,466.5L-4.4,466.5z M-3.6,466.5
		c0,16.8,13.6,30.4,30.4,30.4s30.4-13.6,30.4-30.4s-13.6-30.4-30.4-30.4S-3.6,449.7-3.6,466.5L-3.6,466.5z M8,466.5
		c0,10.4,8.4,18.8,18.8,18.8s18.7-8.4,18.7-18.8c0-10.4-8.4-18.8-18.8-18.8S8,456.2,8,466.5L8,466.5z M7.3,466.5
		c0,10.8,8.7,19.5,19.5,19.5s19.5-8.7,19.5-19.5c0-10.8-8.7-19.5-19.5-19.5S7.3,455.8,7.3,466.5L7.3,466.5z"/>
</g>
<g id="tandems" style="stroke:white;">
	<path class="st2" d="M445,460.1l-0.6-1 M450.6,469.8l-0.4-0.6 M440.2,459.1c-0.1,0-0.2,0.1-0.2,0.1 M444.5,459.1
		c-0.1-0.2-0.3-0.3-0.5-0.3 M443.9,458.8L443.9,458.8 M439.9,459.2l-0.8,1.4 M432.4,471.6l7.2-12.5 M432.3,472.4l7.6-13.2
		 M451.2,470.8l-6.8-11.7 M444.2,459.2l7.1,12.3 M444.4,459.1c-0.1-0.2-0.3-0.3-0.5-0.3 M444.2,459.2c0-0.1-0.1-0.1-0.2-0.1
		 M440.1,459.1h3.8 M443.9,458.8h-3.8 M440.1,458.8c-0.2,0-0.4,0.1-0.5,0.3 M440.1,459.1c-0.1,0-0.2,0.1-0.2,0.1 M434.8,452.7
		l-0.2,0.3 M434.8,452.7l-0.2-0.1 M435.9,455L435.9,455 M436.2,455.1l-0.2,0.3 M436.2,455.1l-0.3-0.2 M437.3,457.5L437.3,457.5
		 M437.7,457.6l-0.2,0.3 M437.7,457.6l-0.3-0.2 M438.8,459.9l0.3,0.2 M438.8,459.9L438.8,459.9 M438.6,460.2l-1.1-2.3 M436,455.5
		l1.1,2.3 M434.6,453l1.1,2.3 M449.7,453.3l2.7,4.7 M448.6,455.6l3.1,5.3 M451.1,464.9l-3.9-6.8 M446.8,458.3l4.2,7.3 M451.5,461.5
		l-3.3-5.7 M450.2,468.3l-4.5-7.7 M449.7,453.3l-0.4-0.6 M450,453.1l-0.3,0.2 M448.2,455l0.4,0.6 M447.9,455.1l0.4,0.6 M448.6,455.6
		l-0.3,0.2 M446.8,458.3l0.3-0.2 M446.8,457.4l0.4,0.6 M446.4,457.6l0.4,0.6 M450.5,468.9l-0.3,0.2 M450.5,468.9l-0.4-0.6
		 M450.2,468.3l-0.3,0.2 M445.3,459.9l-0.3,0.2 M446.4,457.6l0.3-0.2 M448.2,455l-0.3,0.2 M449.3,452.7l0.1-0.1 M445.7,460.6
		l-0.4-0.6 M445.7,460.6l-0.3,0.2 M448.8,456l1.1-2.3 M445.9,461l1.1-2.3 M451,465.6l-1.1,2.3 M448.5,456.2l-1.1,2.3 M445.5,460.2
		l1.1-2.3 M448.1,455.5l-1.1,2.3 M451,467.3l-0.6,1.3 M449.5,453l-1.1,2.3 M434.4,453.3l0.4-0.6 M434.1,453.1l0.3,0.2 M434.8,452.7
		l-0.1-0.1 M434.4,453.3l-2.9,4.9 M432.2,461.2l3.3-5.6 M436.9,458.1l-4.2,7.3 M437.3,458.3l-4.5,7.7 M438.4,460.6l-4.5,7.7
		 M435.8,455.8l-3.5,6 M435.9,455l-0.4,0.6 M436.2,455.1l-0.4,0.6 M436.2,455.1l-0.3-0.2 M435.8,455.8l-0.3-0.2 M437.3,457.4
		l-0.4,0.6 M437.3,458.3l-0.3-0.2 M437.6,457.6l-0.4,0.6 M437.6,457.6l-0.3-0.2 M433.5,468.9l0.3,0.2 M432.8,466L432.8,466
		 M432.8,466L432.8,466 M433.5,468.9l0.4-0.6 M433.9,468.3l0.3,0.2 M438.4,460.6l0.3,0.2 M438.7,459.9l0.3,0.2 M438.4,460.6l0.4-0.6
		 M435.3,456l-1.1-2.3 M435.6,456.2l1.1,2.3 M438.1,461l-1.1-2.3 M434.1,467.9l-1.1-2.3 M437.4,457.9l1.1,2.3 M437.1,457.8l-1.1-2.3
		 M433.7,468.6l-1-2 M434.6,453l1.1,2.3 M439.8,465.9v3.2 M444.3,454.2V454 M444.3,454.2L444.3,454.2 M438.3,453.7L438.3,453.7
		 M438.3,454.2v-0.6 M438.4,454.2L438.4,454.2 M439.8,454.2V454 M444.3,454.2V454 M439.8,454.2h-1.5 M445.8,454.2h-1.5 M438.4,454.2
		V454 M445.8,454.2V454 M445.8,454h-3 M441.3,454h-3 M445.8,454v-0.3 M445.8,453.7h-0.4 M438.7,453.7h-0.4 M438.4,454v-0.3
		 M442.8,454h-1.5 M441.3,454v-0.3 M442.8,454v-0.3 M442.8,453.7h-1.5 M442,470.4v10 M442,470.4v-1.5 M442,470.4l2.7,0.3 M442,468.9
		l2.2,0.2 M450.6,469.8l0.5,0.1 M454.2,481.1h-24.9 M453.9,480.4h-24.2 M439.1,460.7l-6.8,11.8 M439.1,460.7l0.3,0.2 M432,473.5
		l7.3-12.7 M445,460.7l6.3,10.9 M444.7,460.8l0.3-0.2 M444.7,460.8l6.7,11.7 M433.9,477.4c0.1,0,0.3-0.1,0.3-0.2 M434.2,477.2l2-3.5
		 M433.7,473.7h2.6 M433.7,473.7l-2.1,3.7 M431.5,477.4h2.4 M450.2,477.4h2.4 M450.4,473.7l2.1,3.7 M447.8,473.7h2.6 M449.8,477.2
		l-2-3.5 M449.8,477.2c0.1,0.1,0.2,0.2,0.3,0.2 M448.9,477.8c0.3,0.5,0.8,0.7,1.3,0.7 M433.9,478.5c0.5,0,1-0.3,1.3-0.7
		 M448.9,477.8l-4.6-8 M435.2,477.8l4.6-8 M439.8,465.9v3.9 M444.3,465.9h-4.5 M444.3,469.8v-3.9 M450.2,478.5h2.9 M444.1,460.7
		h-4.2 M433.9,478.5h-3.4 M451.6,473.6l-7.5-13 M445,460.7C445,460.7,445,460.7,445,460.7L445,460.7L445,460.7L445,460.7L445,460.7
		l-0.1,0h0h0h0h0h0h0l0,0l0,0l0,0l0,0h0h0h-0.1h-0.1h-0.1h-0.1h-0.1 M444.7,460.8C444.7,460.8,444.7,460.8,444.7,460.8L444.7,460.8
		L444.7,460.8L444.7,460.8L444.7,460.8l-0.1,0l0,0l0,0l0,0l0,0l0,0l0,0l0,0l0,0l0,0l0,0l0,0l0,0l0,0l0,0l0,0l0,0 M431.7,474.8
		l8.2-14.2 M439.9,460.7L439.9,460.7h-0.1h-0.1h-0.1h-0.1h0h0h0l0,0l0,0l0,0h0h0h0h0h0h0l0,0l0,0l0,0l0,0l0,0c0,0,0,0,0,0
		 M439.9,460.7L439.9,460.7L439.9,460.7l-0.1,0l0,0l0,0l0,0l0,0l0,0l0,0l0,0l0,0l0,0l0,0l0,0l0,0l0,0l0,0l0,0l0,0c0,0,0,0,0,0
		c0,0,0,0,0,0 M433.9,452.4v-0.9 M449.4,452h0.9 M434.7,452h-0.8 M436.1,451.5h-2.2 M450.2,451.5H448 M450.2,452.4v-1 M454.7,452.6
		h-4.3 M455.3,451.5h-5.1 M433.9,451.5h-5.2 M433.7,452.6h-4.5 M434.7,452c-0.4,0-0.8,0.2-1,0.6 M434.7,452.6
		c-0.2,0-0.4,0.1-0.5,0.3 M434.7,452.6h14.6 M449.4,452h-14.6 M450.3,452.6c-0.2-0.3-0.6-0.6-1-0.6 M449.8,452.9
		c-0.1-0.2-0.3-0.3-0.5-0.3 M452.8,456.8l-2.5-4.3 M452.5,457.5l-2.7-4.7 M431.2,457l2.6-4.5 M431.4,457.8l2.8-4.9 M463.2,442.5
		h-42.1 M426.2,444v3.8 M426.8,444v4.5 M426.8,444h-0.6 M457.3,448.4V444 M457.9,447.7V444 M457.9,444h-0.6 M436.1,451.5v0.6
		 M448,451.5v0.6 M448,451.5h-11.9 M437.4,445.5v6 M437.4,445.5h-0.6 M436.8,445.5v6 M447.3,445.5v6 M447.3,445.5h-0.6 M446.7,445.5
		v6 M442,470.4v-1.5 M442,470.4v10 M432.6,469.8l0.9-0.1 M442,468.9l-2.2,0.2 M442,470.4l-2.7,0.3 M432.6,471.3l-0.1,0 M438.7,453.3
		v0.4 M441.7,453.7h-3 M441.7,453.3v0.4 M441.7,453.3h-3 M442.4,453.3h-0.7 M442.4,453.3v0.4 M445.4,453.7h-3 M445.4,453.3v0.4
		 M445.4,453.3h-3 M445.4,452.6v0.4 M442.4,452.6v0.4 M445.4,452.9h-3 M442.4,452.9h-0.7 M441.7,452.6v0.4 M438.7,452.6v0.4
		 M441.7,452.9h-3 M438.7,452.9v0.4 M441.7,453.3h-3 M441.7,452.9v0.4 M441.7,452.9h-3 M442.4,453.3h-0.7 M442.4,452.9h-0.7
		 M442.4,452.9v0.4 M445.4,453.3h-3 M445.4,452.9v0.4 M445.4,452.9h-3"/>
	<path class="st2" d="M384.3,466.8c0-9.4,7.6-17,17-17s17,7.6,17,17c0,9.4-7.6,17-17,17C391.9,483.7,384.3,476.1,384.3,466.8
		L384.3,466.8z M384.6,466.8c0,9.2,7.5,16.7,16.7,16.7c9.2,0,16.7-7.5,16.7-16.7c0-9.2-7.5-16.7-16.7-16.7S384.6,457.5,384.6,466.8
		L384.6,466.8z M383.4,466.8c0,9.9,8,17.9,17.9,17.9s17.9-8,17.9-17.9c0-9.9-8-17.9-17.9-17.9S383.4,456.9,383.4,466.8L383.4,466.8z
		 M384.7,466.8c0,9.2,7.4,16.6,16.6,16.6s16.6-7.4,16.6-16.6s-7.4-16.6-16.6-16.6S384.7,457.6,384.7,466.8L384.7,466.8z
		 M384.8,466.8c0,9.1,7.4,16.5,16.5,16.5s16.5-7.4,16.5-16.5c0-9.1-7.4-16.5-16.5-16.5S384.8,457.7,384.8,466.8L384.8,466.8z
		 M383.1,466.8c0,10.1,8.2,18.2,18.2,18.2c10.1,0,18.2-8.2,18.2-18.2s-8.2-18.2-18.2-18.2S383.1,456.7,383.1,466.8L383.1,466.8z
		 M382.7,466.8c0,10.3,8.3,18.6,18.6,18.6s18.6-8.3,18.6-18.6s-8.3-18.6-18.6-18.6C391,448.2,382.7,456.5,382.7,466.8L382.7,466.8z
		 M389,463.5l-0.7,0l-0.6,0.3l-0.5,0.5l-0.4,0.6l-0.3,0.7l-0.1,0.8l0,0.8l0.1,0.8l0.3,0.7l0.4,0.6l0.5,0.5l0.6,0.3l0.7,0l0.6-0.3
		l0.5-0.5l0.4-0.6l0.2-0.7l0.1-0.8l0-0.8l-0.1-0.8l-0.3-0.7l-0.4-0.6l-0.5-0.5L389,463.5 M413.5,470.1l0.7,0l0.6-0.3l0.5-0.5
		l0.4-0.6l0.3-0.7l0.1-0.8l0-0.8l-0.1-0.8l-0.3-0.7l-0.4-0.6l-0.5-0.5l-0.6-0.3l-0.7,0l-0.6,0.3l-0.5,0.5l-0.4,0.6l-0.2,0.7
		l-0.1,0.8l0,0.8l0.1,0.8l0.3,0.7l0.4,0.6l0.5,0.5L413.5,470.1 M396.2,460.8c0,0.4,0.3,0.7,0.7,0.7c0.4,0,0.7-0.3,0.7-0.7
		c0-0.4-0.3-0.7-0.7-0.7S396.2,460.4,396.2,460.8L396.2,460.8z M393.5,464.5c0,0.4,0.3,0.7,0.7,0.7c0.4,0,0.7-0.3,0.7-0.7
		s-0.3-0.7-0.7-0.7S393.5,464.1,393.5,464.5L393.5,464.5z M393.5,469.1c0,0.4,0.3,0.7,0.7,0.7c0.4,0,0.7-0.3,0.7-0.7
		s-0.3-0.7-0.7-0.7S393.5,468.7,393.5,469.1L393.5,469.1z M396.2,472.8c0,0.4,0.3,0.7,0.7,0.7c0.4,0,0.7-0.3,0.7-0.7
		s-0.3-0.7-0.7-0.7S396.2,472.4,396.2,472.8L396.2,472.8z M400.5,474.2c0,0.4,0.3,0.7,0.7,0.7c0.4,0,0.7-0.3,0.7-0.7
		s-0.3-0.7-0.7-0.7S400.5,473.8,400.5,474.2L400.5,474.2z M404.9,472.8c0,0.4,0.3,0.7,0.7,0.7s0.7-0.3,0.7-0.7s-0.3-0.7-0.7-0.7
		S404.9,472.4,404.9,472.8L404.9,472.8z M407.6,469.1c0,0.4,0.3,0.7,0.7,0.7c0.4,0,0.7-0.3,0.7-0.7s-0.3-0.7-0.7-0.7
		C408,468.3,407.6,468.7,407.6,469.1L407.6,469.1z M407.6,464.5c0,0.4,0.3,0.7,0.7,0.7c0.4,0,0.7-0.3,0.7-0.7s-0.3-0.7-0.7-0.7
		C408,463.7,407.6,464.1,407.6,464.5L407.6,464.5z M404.9,460.8c0,0.4,0.3,0.7,0.7,0.7s0.7-0.3,0.7-0.7c0-0.4-0.3-0.7-0.7-0.7
		S404.9,460.4,404.9,460.8L404.9,460.8z M400.5,459.3c0,0.4,0.3,0.7,0.7,0.7c0.4,0,0.7-0.3,0.7-0.7c0-0.4-0.3-0.7-0.7-0.7
		C400.9,458.6,400.5,458.9,400.5,459.3L400.5,459.3z M392.4,466.8c0,4.9,4,8.9,8.9,8.9s8.9-4,8.9-8.9s-4-8.9-8.9-8.9
		S392.4,461.9,392.4,466.8L392.4,466.8z M395.3,466.8c0,3.3,2.7,6,6,6s6-2.7,6-6s-2.7-6-6-6S395.3,463.5,395.3,466.8L395.3,466.8z
		 M386.4,466.8c0,8.2,6.7,14.9,14.9,14.9s14.9-6.7,14.9-14.9c0-8.2-6.7-14.9-14.9-14.9S386.4,458.6,386.4,466.8L386.4,466.8z
		 M465,467.2c0,9.4,7.6,17,17,17c9.4,0,17-7.6,17-17c0-9.4-7.6-17-17-17S465,457.8,465,467.2L465,467.2z M465.3,467.2
		c0,9.2,7.5,16.7,16.7,16.7c9.2,0,16.7-7.5,16.7-16.7c0-9.2-7.5-16.7-16.7-16.7C472.8,450.4,465.3,457.9,465.3,467.2L465.3,467.2z
		 M464.2,467.2c0,9.9,8,17.9,17.9,17.9c9.9,0,17.9-8,17.9-17.9c0-9.9-8-17.9-17.9-17.9C472.1,449.3,464.2,457.3,464.2,467.2
		L464.2,467.2z M465.4,467.2c0,9.2,7.4,16.6,16.6,16.6c9.2,0,16.6-7.4,16.6-16.6s-7.4-16.6-16.6-16.6
		C472.8,450.5,465.4,458,465.4,467.2L465.4,467.2z M465.5,467.2c0,9.1,7.4,16.5,16.5,16.5c9.1,0,16.5-7.4,16.5-16.5
		c0-9.1-7.4-16.5-16.5-16.5C472.9,450.7,465.5,458.1,465.5,467.2L465.5,467.2z M463.8,467.2c0,10.1,8.2,18.2,18.2,18.2
		s18.2-8.2,18.2-18.2c0-10.1-8.2-18.2-18.2-18.2C471.9,448.9,463.8,457.1,463.8,467.2L463.8,467.2z M463.4,467.2
		c0,10.3,8.3,18.6,18.6,18.6c10.3,0,18.6-8.3,18.6-18.6s-8.3-18.6-18.6-18.6C471.7,448.6,463.4,456.9,463.4,467.2L463.4,467.2z
		 M469.8,463.9l-0.7,0l-0.6,0.3l-0.5,0.5l-0.4,0.6l-0.3,0.7l-0.1,0.8l0,0.8l0.1,0.8l0.3,0.7l0.4,0.6l0.5,0.5l0.6,0.3l0.7,0l0.6-0.3
		l0.5-0.5l0.4-0.6l0.2-0.7l0.1-0.8l0-0.8l-0.1-0.8l-0.3-0.7l-0.4-0.6l-0.5-0.5L469.8,463.9 M494.3,470.4l0.7,0l0.6-0.3l0.5-0.5
		l0.4-0.6l0.3-0.7l0.1-0.8l0-0.8l-0.1-0.8l-0.3-0.7l-0.4-0.6l-0.5-0.5l-0.6-0.3l-0.7,0l-0.6,0.3l-0.5,0.5l-0.4,0.6l-0.2,0.7
		l-0.1,0.8l0,0.8l0.1,0.8l0.3,0.7l0.4,0.6l0.5,0.5L494.3,470.4 M476.9,461.1c0,0.4,0.3,0.7,0.7,0.7c0.4,0,0.7-0.3,0.7-0.7
		s-0.3-0.7-0.7-0.7S476.9,460.7,476.9,461.1L476.9,461.1z M474.2,464.9c0,0.4,0.3,0.7,0.7,0.7c0.4,0,0.7-0.3,0.7-0.7
		s-0.3-0.7-0.7-0.7S474.2,464.4,474.2,464.9L474.2,464.9z M474.2,469.5c0,0.4,0.3,0.7,0.7,0.7c0.4,0,0.7-0.3,0.7-0.7
		s-0.3-0.7-0.7-0.7S474.2,469,474.2,469.5L474.2,469.5z M476.9,473.2c0,0.4,0.3,0.7,0.7,0.7c0.4,0,0.7-0.3,0.7-0.7s-0.3-0.7-0.7-0.7
		S476.9,472.8,476.9,473.2L476.9,473.2z M481.3,474.6c0,0.4,0.3,0.7,0.7,0.7s0.7-0.3,0.7-0.7s-0.3-0.7-0.7-0.7
		S481.3,474.2,481.3,474.6L481.3,474.6z M485.6,473.2c0,0.4,0.3,0.7,0.7,0.7s0.7-0.3,0.7-0.7s-0.3-0.7-0.7-0.7
		S485.6,472.8,485.6,473.2L485.6,473.2z M488.3,469.5c0,0.4,0.3,0.7,0.7,0.7s0.7-0.3,0.7-0.7s-0.3-0.7-0.7-0.7
		S488.3,469,488.3,469.5L488.3,469.5z M488.3,464.9c0,0.4,0.3,0.7,0.7,0.7s0.7-0.3,0.7-0.7s-0.3-0.7-0.7-0.7
		S488.3,464.4,488.3,464.9L488.3,464.9z M485.6,461.1c0,0.4,0.3,0.7,0.7,0.7s0.7-0.3,0.7-0.7s-0.3-0.7-0.7-0.7
		C486,460.4,485.6,460.7,485.6,461.1L485.6,461.1z M481.3,459.7c0,0.4,0.3,0.7,0.7,0.7s0.7-0.3,0.7-0.7c0-0.4-0.3-0.7-0.7-0.7
		S481.3,459.3,481.3,459.7L481.3,459.7z M473.1,467.2c0,4.9,4,8.9,8.9,8.9s8.9-4,8.9-8.9s-4-8.9-8.9-8.9
		C477.1,458.2,473.1,462.2,473.1,467.2L473.1,467.2z M476.1,467.2c0,3.3,2.7,6,6,6c3.3,0,6-2.7,6-6s-2.7-6-6-6
		C478.7,461.2,476.1,463.9,476.1,467.2L476.1,467.2z M467.1,467.2c0,8.2,6.7,14.9,14.9,14.9s14.9-6.7,14.9-14.9
		c0-8.2-6.7-14.9-14.9-14.9S467.1,458.9,467.1,467.2L467.1,467.2z M370,466.8c0,17.3,14,31.2,31.2,31.2s31.2-14,31.2-31.2
		s-14-31.2-31.2-31.2S370,449.5,370,466.8L370,466.8z M370.4,466.8c0,17,13.8,30.9,30.9,30.9s30.9-13.8,30.9-30.9
		c0-17-13.8-30.9-30.9-30.9S370.4,449.7,370.4,466.8L370.4,466.8z M371.2,466.8c0,16.6,13.5,30.1,30.1,30.1s30.1-13.5,30.1-30.1
		s-13.5-30.1-30.1-30.1S371.2,450.1,371.2,466.8L371.2,466.8z M382,466.8c0,10.7,8.7,19.3,19.3,19.3s19.3-8.7,19.3-19.3
		s-8.7-19.3-19.3-19.3S382,456.1,382,466.8L382,466.8z M450.8,467.2c0,17.3,14,31.2,31.2,31.2s31.2-14,31.2-31.2s-14-31.2-31.2-31.2
		C464.7,435.9,450.8,449.9,450.8,467.2L450.8,467.2z M451.1,467.2c0,17,13.8,30.9,30.9,30.9c17,0,30.9-13.8,30.9-30.9
		c0-17-13.8-30.9-30.9-30.9C465,436.3,451.1,450.1,451.1,467.2L451.1,467.2z M451.9,467.2c0,16.6,13.5,30.1,30.1,30.1
		c16.6,0,30.1-13.5,30.1-30.1S498.6,437,482,437C465.4,437,451.9,450.5,451.9,467.2L451.9,467.2z M463.4,467.2
		c0,10.3,8.3,18.6,18.6,18.6c10.3,0,18.6-8.3,18.6-18.6s-8.3-18.6-18.6-18.6C471.7,448.6,463.4,456.9,463.4,467.2L463.4,467.2z
		 M462.7,467.2c0,10.7,8.7,19.3,19.3,19.3s19.3-8.7,19.3-19.3s-8.7-19.3-19.3-19.3C471.3,447.8,462.7,456.5,462.7,467.2L462.7,467.2
		z M412.8,463.9C412.8,463.9,412.8,463.9,412.8,463.9"/>
</g>
<g id="pusher1-arm" style="display:none;">
	<g>
		<path d="M173.4,469.4h2.6 M173.4,469v0.4 M176,469h-2.6 M176,469c0.2,0,0.4-0.2,0.4-0.4 M176,469.4
			c0.4,0,0.7-0.3,0.7-0.7 M176.7,468.7v-7.3 M176.4,468.7v-7.3 M176,460.6h-2.6 M173.4,460.6v0.4 M176,461h-2.6 M176.4,461.3
			c0-0.2-0.2-0.4-0.4-0.4 M176.7,461.3c0-0.4-0.3-0.7-0.7-0.7 M180.3,467.9c0,0.3,0.3,0.6,0.6,0.6s0.6-0.3,0.6-0.6s-0.3-0.6-0.6-0.6
			S180.3,467.6,180.3,467.9L180.3,467.9z M180.3,456.9c0,0.3,0.3,0.6,0.6,0.6s0.6-0.3,0.6-0.6s-0.3-0.6-0.6-0.6
			S180.3,456.6,180.3,456.9L180.3,456.9z M195,437c0-0.8-0.7-1.5-1.5-1.5 M177.1,435.5v1.5 M176.7,435.5v1.5 M176.7,437h0.4
			 M176.7,469v1.5 M176.7,469h0.4 M177.1,469v1.5 M176.7,470.5h0.4 M177.1,470.5h0.4 M177.5,435.5v35 M177.5,435.5h16.1
			 M177.5,470.5h5.3 M182.8,470.5c0.7,0,1.3-0.5,1.5-1.3 M189.4,449.8c-1.4,0.1-2.5,1.1-2.7,2.5 M189.4,449.8l3-0.2 M192.3,449.6
			c1.5-0.1,2.7-1.4,2.7-2.9 M195,446.7V437 M176.7,469V437 M177.1,469V437 M185.6,459.5l3.8,2.6 M186.2,455.4l5.4,3.7 M185.8,459
			l0.2-0.3 M190,461.4l-3.9-2.7 M186,458.7c-0.1-0.1-0.2-0.1-0.3-0.2 M191.2,459.7l-5.1-3.5 M191.4,459.5l-5.3-3.6 M185.8,459
			c0,0-0.1-0.1-0.1-0.1 M185.8,459l3.9,2.7 M184.7,467.6c0.3,0.2,0.7,0.3,1.1,0.2 M184.7,467.6l-0.2-0.1 M184.9,471.3l1.4,0.9
			 M183.8,470.1c0.3,0.5,0.7,0.9,1.1,1.2 M179.1,470.5c0.5,1.2,1.3,2.2,2.3,2.9 M186.5,476.9l-5.1-3.5 M184.4,472.1l0.2-0.3
			 M182.9,470.5c0.3,0.6,0.8,1.2,1.4,1.6 M184.4,472.1l1.8,1.3 M180.2,470.5c0.5,0.1,0.9,0.1,1.4,0 M181.8,472.8l-0.2,0.3
			 M179.9,470.5c0.4,0.9,1.1,1.7,2,2.3 M181.8,472.8l4.5,3.1 M181.6,473.1l4.8,3.3 M179.5,470.5c0.5,1,1.2,1.9,2.2,2.6 M186.2,472.9
			l-1.6-1.1 M183.3,470.4c0.3,0.5,0.7,1,1.3,1.4 M180.4,456.9c0,0.3,0.2,0.5,0.5,0.5s0.5-0.2,0.5-0.5c0-0.3-0.2-0.5-0.5-0.5
			S180.4,456.6,180.4,456.9L180.4,456.9z M180.4,467.9c0,0.3,0.2,0.5,0.5,0.5s0.5-0.2,0.5-0.5s-0.2-0.5-0.5-0.5
			S180.4,467.6,180.4,467.9L180.4,467.9z M176.8,435.4h0.4 M177.2,435.4h0.4 M184.3,469.2l2.4-16.9 M187.1,467.6l-1.3,0.2"/>
	</g>
</g>
<g id="frame-fill-p1">
	<g>
		<line class="st0" x1="176.4" y1="447.2" x2="195.5" y2="447.2"/>
		<line class="st0" x1="176.3" y1="448.7" x2="195.2" y2="448.7"/>
	</g>
</g>
<g id="pusher1" style="display:none; stroke:white;">
	<g>
		<path class="st2" d="M200.2,472.9l0.7,0.5 M200.3,472.8c0.2,0.3,0.4,0.5,0.7,0.6 M202.7,468.8c-0.4-0.1-0.9,0-1.3,0.1
			 M200.4,472.8c0.2,0.2,0.4,0.4,0.6,0.6 M202.5,469.2c-0.4,0-0.8,0-1.2,0.2 M215.5,474.2h-0.3 M202.2,469.6c-0.2,0-0.4,0.1-0.6,0.1
			 M202.3,477.4v1 M214,477.1L214,477.1 M205.2,480.8v0.2 M210.1,465.8C210.1,465.8,210.1,465.8,210.1,465.8 M206.1,466.8v-0.9
			 M210.1,465.8v1 M205.1,466.9l0.7,0 M210.2,466.9l0.6,0 M210.8,480.9c-0.4,0-0.7,0-1,0 M206.5,480.5c-0.4,0.1-0.4,0.2-0.1,0.3
			 M209.6,480.8c0.7-0.1,0.7-0.2-0.1-0.3 M211,480.3l-1.4,0 M205,480.3l1.4,0 M205,480.3l0,0.3 M205,480.7c0,0.1,0.5,0.2,1.2,0.3
			 M210,472.5c-0.4-0.7-1.1-1.2-1.9-1.2 M208.1,475.6c0.8,0,1.5-0.4,1.9-1.2 M206,473.5c0,1.1,0.9,2.1,2.1,2.1
			c1.1,0,2.1-0.9,2.1-2.1c0-1.1-0.9-2.1-2.1-2.1C206.9,471.4,206,472.3,206,473.5L206,473.5z M208.1,475.6c1.2,0,2.1-0.9,2.1-2.1
			s-0.9-2.1-2.1-2.1 M208.1,471.4L208.1,471.4l-0.1,0l-0.1,0l-0.1,0l-0.1,0l-0.1,0l-0.1,0l-0.1,0l-0.1,0l0,0l0,0l0,0l0,0l0,0l0,0
			l0,0l0,0l0,0l0,0l0,0l0,0l0,0l0,0l0,0l0,0l0,0l0,0l0,0l0,0l0,0l0,0l0,0l0,0l0,0l0,0l0,0l0,0l0,0l0,0l0,0l0,0l0,0l0,0l0,0l0,0l0,0
			l0,0l0,0l0,0l0,0l0,0l0,0l0,0l0,0l0,0l0,0.1l0,0.1l0,0.1l0,0.1l0,0.1l0,0.1l0,0.1l0,0.1v0.1v0.1l0,0.1l0,0.1l0,0.1l0,0.1l0,0.1
			l0,0.1l0,0.1l0,0.1l0,0l0,0l0,0l0,0l0,0l0,0l0,0l0,0l0,0l0,0l0,0l0,0l0,0l0,0l0,0l0,0l0,0l0,0l0,0l0,0l0,0l0,0l0,0l0,0l0,0l0,0
			l0,0l0,0l0,0l0,0l0,0l0,0l0,0l0,0l0,0l0,0l0,0l0,0l0,0l0,0l0,0l0,0l0,0l0,0l0,0l0,0l0.1,0l0.1,0l0.1,0l0.1,0l0.1,0l0.1,0l0.1,0
			l0.1,0h0.1 M206.1,473.5c0,1.1,0.9,2,2,2s2-0.9,2-2c0-1.1-0.9-2-2-2S206.1,472.4,206.1,473.5L206.1,473.5z M208,475.1
			c0.9,0,1.6-0.7,1.6-1.6s-0.7-1.6-1.6-1.6 M207.2,473.5c0,0.4,0.3,0.8,0.8,0.8c0.4,0,0.8-0.3,0.8-0.8c0-0.4-0.3-0.8-0.8-0.8
			C207.5,472.7,207.2,473,207.2,473.5L207.2,473.5z M207.1,473.5c0,0.5,0.4,0.8,0.8,0.8s0.8-0.4,0.8-0.8c0-0.5-0.4-0.8-0.8-0.8
			S207.1,473,207.1,473.5L207.1,473.5z M208,474.3c0.5,0,0.8-0.4,0.8-0.8c0-0.5-0.4-0.8-0.8-0.8 M207.1,473.5c0,0.5,0.4,0.9,0.9,0.9
			s0.9-0.4,0.9-0.9s-0.4-0.9-0.9-0.9S207.1,473,207.1,473.5L207.1,473.5z M207,473.5c0,0.5,0.4,1,1,1s1-0.4,1-1c0-0.5-0.4-1-1-1
			S207,472.9,207,473.5L207,473.5z M207,473.5c0,0.6,0.5,1,1,1c0.6,0,1-0.5,1-1c0-0.6-0.5-1-1-1C207.4,472.5,207,472.9,207,473.5
			L207,473.5z M208,474.5c0.6,0,1-0.5,1-1c0-0.6-0.5-1-1-1 M208,474.5L208,474.5 M208,472.5L208,472.5 M206.4,473.5
			c0,0.9,0.7,1.6,1.6,1.6s1.6-0.7,1.6-1.6c0-0.9-0.7-1.6-1.6-1.6C207.2,471.9,206.4,472.6,206.4,473.5L206.4,473.5z M208.1,475.6
			L208.1,475.6 M208.1,471.4L208.1,471.4 M208,474.3L208,474.3 M208,472.7L208,472.7 M208,475.1L208,475.1 M208,471.9L208,471.9
			 M208,482.6c5.1,0,9.2-4.1,9.2-9.2c0-5.1-4.1-9.2-9.2-9.2 M208,464.2c-5.1,0-9.3,4.2-9.3,9.3s4.2,9.3,9.3,9.3
			c5.1,0,9.3-4.2,9.3-9.3C217.3,468.3,213.1,464.2,208,464.2L208,464.2z M208,482.6c5.1,0,9.2-4.1,9.2-9.2c0-5.1-4.1-9.2-9.2-9.2
			 M211.3,485.5L211,485l-0.5-0.5l-0.6-0.4l-0.7-0.2l-0.8-0.1l-0.8,0l-0.8,0.1l-0.7,0.2l-0.6,0.4l-0.5,0.5l-0.3,0.6l0,0.7l0.3,0.6
			l0.5,0.5l0.6,0.4l0.7,0.3l0.8,0.1l0.8,0l0.8-0.1l0.7-0.3l0.6-0.4l0.5-0.5l0.3-0.6L211.3,485.5 M204.8,461.4l0.3,0.6l0.5,0.5
			l0.6,0.4l0.7,0.2l0.8,0.1l0.8,0l0.8-0.1l0.7-0.2l0.6-0.4l0.5-0.5l0.3-0.6l0-0.7l-0.3-0.6l-0.5-0.5l-0.6-0.4l-0.7-0.3l-0.8-0.1
			l-0.8,0l-0.8,0.1l-0.7,0.3l-0.6,0.4l-0.5,0.5l-0.3,0.6L204.8,461.4 M208,482.3c4.9,0,8.9-4,8.9-8.9c0-4.9-4-8.9-8.9-8.9
			c-4.9,0-8.9,4-8.9,8.9C199.1,478.4,203.1,482.4,208,482.3L208,482.3z M208,479.3c3.2,0,5.9-2.6,5.9-5.9c0-3.2-2.6-5.9-5.9-5.9
			c-3.2,0-5.9,2.6-5.9,5.9C202.1,476.7,204.8,479.3,208,479.3L208,479.3z M199.9,473.5c0,0.4,0.3,0.7,0.7,0.7s0.7-0.3,0.7-0.7
			s-0.3-0.7-0.7-0.7C200.3,472.8,199.9,473.1,199.9,473.5L199.9,473.5z M201.3,477.8c0,0.4,0.3,0.7,0.7,0.7s0.7-0.3,0.7-0.7
			s-0.3-0.7-0.7-0.7S201.3,477.4,201.3,477.8L201.3,477.8z M205,480.5c0,0.4,0.3,0.7,0.7,0.7c0.4,0,0.7-0.3,0.7-0.7
			c0-0.4-0.3-0.7-0.7-0.7C205.3,479.7,205,480,205,480.5L205,480.5z M209.5,480.4c0,0.4,0.3,0.7,0.7,0.7c0.4,0,0.7-0.3,0.7-0.7
			c0-0.4-0.3-0.7-0.7-0.7C209.9,479.7,209.5,480,209.5,480.4L209.5,480.4z M213.2,477.8c0,0.4,0.3,0.7,0.7,0.7s0.7-0.3,0.7-0.7
			s-0.3-0.7-0.7-0.7S213.2,477.4,213.2,477.8L213.2,477.8z M214.6,473.5c0,0.4,0.3,0.7,0.7,0.7s0.7-0.3,0.7-0.7
			c0-0.4-0.3-0.7-0.7-0.7S214.6,473.1,214.6,473.5L214.6,473.5z M213.2,469.2c0,0.4,0.3,0.7,0.7,0.7c0.4,0,0.7-0.3,0.7-0.7
			s-0.3-0.7-0.7-0.7C213.5,468.4,213.2,468.8,213.2,469.2L213.2,469.2z M209.5,466.5c0,0.4,0.3,0.7,0.7,0.7c0.4,0,0.7-0.3,0.7-0.7
			s-0.3-0.7-0.7-0.7C209.8,465.8,209.5,466.1,209.5,466.5L209.5,466.5z M205,466.5c0,0.4,0.3,0.7,0.7,0.7c0.4,0,0.7-0.3,0.7-0.7
			s-0.3-0.7-0.7-0.7C205.3,465.8,205,466.1,205,466.5L205,466.5z M201.3,469.2c0,0.4,0.3,0.7,0.7,0.7c0.4,0,0.7-0.3,0.7-0.7
			s-0.3-0.7-0.7-0.7C201.6,468.4,201.3,468.8,201.3,469.2L201.3,469.2z M204.8,461.4l0,0.1l0.1,0.1l0.1,0.1l0.1,0.1l0.1,0.1l0.1,0.1
			l0.1,0.1l0.1,0.1l0.1,0.1l0.1,0.1l0.1,0.1l0.1,0.1l0.1,0.1l0.2,0.1l0.2,0.1l0.2,0.1l0.2,0l0.2,0l0.2,0l0.2,0l0.2,0l0.2,0l0.2,0
			l0.2,0 M208,458.8l-0.2,0l-0.2,0l-0.2,0l-0.2,0l-0.2,0l-0.2,0l-0.2,0.1l-0.2,0.1l-0.2,0.1l-0.2,0.1l-0.2,0.1l-0.2,0.1l-0.2,0.1
			l-0.1,0.1l-0.1,0.1l-0.1,0.2l-0.1,0.2l-0.1,0.2l-0.1,0.2l-0.1,0.2l0,0.2l0,0.2l0,0.2l0,0.2 M208,483.7l-0.4,0l-0.4,0l-0.4,0.1
			l-0.4,0.1l-0.3,0.1l-0.3,0.2l-0.3,0.2l-0.3,0.2l-0.2,0.3l-0.2,0.3l-0.1,0.3l0,0.3l0,0.3l0.1,0.3l0.2,0.3l0.2,0.3l0.3,0.2l0.3,0.2
			l0.3,0.2l0.4,0.1l0.4,0.1l0.4,0.1l0.4,0l0.4,0 M202.1,468.4c-0.4,0-0.7,0.3-0.7,0.7c0,0.4,0.3,0.7,0.7,0.7 M205.7,465.8
			c-0.4,0-0.7,0.3-0.7,0.7c0,0.4,0.3,0.7,0.7,0.7 M210.2,465.8c-0.4,0-0.7,0.3-0.7,0.7c0,0.4,0.3,0.7,0.7,0.7 M213.9,468.4
			c-0.4,0-0.7,0.3-0.7,0.7c0,0.4,0.3,0.7,0.7,0.7 M215.3,472.7c-0.4,0-0.7,0.3-0.7,0.7c0,0.4,0.3,0.7,0.7,0.7 M213.9,477.1
			c-0.4,0-0.7,0.3-0.7,0.7c0,0.4,0.3,0.7,0.7,0.7 M210.3,479.7c-0.4,0-0.7,0.3-0.7,0.7c0,0.4,0.3,0.7,0.7,0.7 M205.7,479.7
			c-0.4,0-0.7,0.3-0.7,0.7c0,0.4,0.3,0.7,0.7,0.7 M202.1,477.1c-0.4,0-0.7,0.3-0.7,0.7c0,0.4,0.3,0.7,0.7,0.7 M200.7,472.8
			c-0.4,0-0.7,0.3-0.7,0.7c0,0.4,0.3,0.7,0.7,0.7 M208,467.6c-3.2,0-5.9,2.6-5.9,5.9c0,3.2,2.6,5.9,5.9,5.9 M208.1,488.1l-0.1,0
			 M207.9,458.8l0.1,0 M208,464.3L208,464.3 M208,482.6L208,482.6 M208,464.3l-0.1,0l-0.1,0l-0.1,0l-0.1,0l-0.1,0l-0.1,0l-0.1,0
			l-0.1,0l-0.1,0l-0.1,0l-0.1,0l-0.1,0l-0.1,0l-0.1,0l-0.1,0l-0.1,0l-0.1,0l-0.1,0l-0.1,0l-0.1,0l-0.1,0l-0.1,0l-0.1,0l-0.1,0
			l-0.1,0l-0.1,0l-0.1,0l-0.1,0l-0.1,0l-0.1,0l-0.1,0l-0.1,0l-0.1,0l-0.1,0l-0.1,0l-0.1,0l-0.1,0l-0.1,0l-0.1,0.1l-0.1,0.1l-0.1,0.1
			l-0.1,0.1l-0.1,0.1l-0.1,0.1l-0.1,0.1l-0.1,0.1l-0.1,0.1l-0.1,0.1l-0.1,0.1l-0.1,0.1l-0.1,0.1l-0.1,0.1l-0.1,0.1l-0.1,0.1
			l-0.1,0.1l-0.1,0.1l-0.1,0.1l-0.1,0.1l-0.1,0.1l-0.1,0.1l-0.1,0.1l-0.1,0.1l-0.1,0.1l-0.1,0.1l-0.1,0.1l-0.1,0.1l-0.1,0.1
			l-0.1,0.1l-0.1,0.1l-0.1,0.1l-0.1,0.1l-0.1,0.1l-0.1,0.1l-0.1,0.1l-0.1,0.1l-0.1,0.1l-0.1,0.1l-0.1,0.1l-0.1,0.1l-0.1,0.1
			l-0.1,0.1l-0.1,0.1l-0.1,0.1l-0.1,0.1l-0.1,0.1L200,469l-0.1,0.1l-0.1,0.1l-0.1,0.1l-0.1,0.1l0,0.1l0,0.1l0,0.1l0,0.1l0,0.1l0,0.1
			l0,0.1l0,0.1l0,0.1l0,0.1l0,0.1l0,0.1l0,0.1l0,0.1l0,0.1l0,0.1l0,0.1l0,0.1l0,0.1l0,0.1l0,0.1l0,0.1l0,0.1l0,0.1l0,0.1l0,0.1
			l0,0.1l0,0.1l0,0.1l0,0.1l0,0.1l0,0.1l0,0.1l0,0.1l0,0.1l0,0.1l0,0.1v0.1l0,0.1l0,0.1l0,0.1l0,0.1l0,0.1l0,0.1l0,0.1l0,0.1l0,0.1
			l0,0.1l0,0.1l0,0.1l0,0.1l0,0.1l0,0.1l0,0.1l0,0.1l0,0.1l0,0.1l0,0.1l0,0.1l0,0.1l0,0.1l0,0.1l0,0.1l0,0.1l0,0.1l0,0.1l0,0.1
			l0,0.1l0,0.1l0,0.1l0,0.1l0,0.1l0,0.1l0,0.1l0,0.1l0,0.1l0.1,0.1l0.1,0.1l0.1,0.1l0.1,0.1l0.1,0.1l0.1,0.1l0.1,0.1l0.1,0.1
			l0.1,0.1l0.1,0.1l0.1,0.1l0.1,0.1l0.1,0.1l0.1,0.1l0.1,0.1l0.1,0.1l0.1,0.1l0.1,0.1l0.1,0.1l0.1,0.1l0.1,0.1l0.1,0.1l0.1,0.1
			l0.1,0.1l0.1,0.1l0.1,0.1l0.1,0.1l0.1,0.1l0.1,0.1l0.1,0.1l0.1,0.1l0.1,0.1l0.1,0.1l0.1,0.1l0.1,0.1l0.1,0.1l0.1,0.1l0.1,0.1
			l0.1,0.1l0.1,0.1l0.1,0.1l0.1,0.1l0.1,0.1l0.1,0.1l0.1,0.1l0.1,0.1l0.1,0.1l0.1,0.1l0.1,0.1l0.1,0.1l0.1,0.1l0.1,0.1l0.1,0l0.1,0
			l0.1,0l0.1,0l0.1,0l0.1,0l0.1,0l0.1,0l0.1,0l0.1,0l0.1,0l0.1,0l0.1,0l0.1,0l0.1,0l0.1,0l0.1,0l0.1,0l0.1,0l0.1,0l0.1,0l0.1,0
			l0.1,0l0.1,0l0.1,0l0.1,0l0.1,0l0.1,0l0.1,0l0.1,0l0.1,0l0.1,0l0.1,0l0.1,0l0.1,0l0.1,0l0.1,0h0.1 M208,458.4
			c-8.3,0-15,6.7-15,15.1c0,8.3,6.7,15,15.1,15c8.3,0,15-6.7,15-15.1C223.1,465.2,216.3,458.4,208,458.4L208,458.4z M208,452.4
			c-11.6,0-21,9.4-21,21.1s9.4,21,21.1,21c11.6,0,21-9.4,21-21.1C229.1,461.8,219.6,452.4,208,452.4L208,452.4z M208,476.6
			c1.7,0,3.1-1.4,3.1-3.1c0-1.7-1.4-3.1-3.1-3.1 M208,469.3c-2.3,0-4.2,1.9-4.2,4.2c0,2.3,1.9,4.2,4.2,4.2 M213.2,478.1
			c0.3-0.3,0.5-0.6,0.7-1 M209.6,480.3c0.4-0.1,0.8-0.2,1.2-0.4 M205.3,479.9c0.4,0.2,0.8,0.3,1.2,0.4 M202,477.1
			c0.2,0.4,0.5,0.7,0.7,1 M201.1,472.9c0,0.4,0,0.8,0,1.2 M202.7,468.9c-0.3,0.3-0.5,0.6-0.7,1 M206.4,466.7
			c-0.4,0.1-0.8,0.2-1.2,0.4 M210.7,467.1c-0.4-0.2-0.8-0.3-1.2-0.4 M214,469.9c-0.2-0.4-0.5-0.7-0.7-1 M214.9,474.1
			c0-0.4,0-0.8,0-1.2 M206.5,469.5c-1.9,0.7-3,2.7-2.7,4.7 M209.5,468.9c-0.5-0.2-1-0.2-1.5-0.2 M209.5,468.9v0.6 M212.1,474.2
			c0.3-2-0.8-4-2.7-4.7 M212.6,474.5l-0.5-0.3 M211.2,477c0.7-0.7,1.3-1.6,1.5-2.5 M205.3,476.7c1.6,1.3,3.8,1.3,5.4,0 M205.3,476.7
			l-0.5,0.3 M204.8,477L204.8,477 M203.3,474.5c0.2,1,0.7,1.9,1.5,2.5 M212.6,474.5L212.6,474.5 M211.2,477c0.7-0.7,1.3-1.6,1.5-2.5
			 M211.2,477L211.2,477 M209.4,468.9c-1-0.3-2-0.3-2.9,0 M209.5,468.9L209.5,468.9 M208,468.7L208,468.7 M212.5,474.4l0.2,0.1
			 M211,476.9c0.8-0.7,1.3-1.6,1.5-2.5 M211,476.9l0.2,0.1 M205,476.9l-0.2,0.1 M203.5,474.4l-0.2,0.1 M204.8,473.5
			c0,1.7,1.4,3.1,3.1,3.1s3.1-1.4,3.1-3.1c0-1.7-1.4-3.1-3.1-3.1S204.8,471.7,204.8,473.5L204.8,473.5z M205.3,476.7L205.3,476.7
			 M205,476.9l0.3-0.2 M205,476.9L205,476.9 M203.8,474.2L203.8,474.2 M203.8,474.2c0.2,1,0.7,1.9,1.5,2.5 M210.7,476.7
			c0.8-0.6,1.3-1.5,1.5-2.5 M212.1,474.2L212.1,474.2 M209.4,469.5L209.4,469.5 M209.4,469.5c-0.9-0.4-2-0.3-2.9,0 M206.5,469.5
			L206.5,469.5 M203.8,474.2l-0.3,0.2 M203.5,474.4c0.2,1,0.7,1.9,1.5,2.5 M206.5,469.1v0.4 M206.5,469.1v-0.2 M209.4,469.1
			L209.4,469.1 M209.4,469.1v0.4 M209.4,468.9v0.2 M209.4,469.1c-0.5-0.2-1-0.2-1.5-0.2 M209.4,469.1c-1-0.3-2-0.3-2.9,0
			 M212.5,474.4l-0.3-0.2 M212.5,474.4L212.5,474.4 M211,476.9L211,476.9 M210.7,476.7l0.3,0.2 M211,476.9c0.8-0.7,1.3-1.6,1.5-2.5
			 M208,470.3L208,470.3 M208,476.6L208,476.6 M208,468.9L208,468.9 M205.8,473.5c0,1.2,1,2.2,2.2,2.2s2.2-1,2.2-2.2
			c0-1.2-1-2.2-2.2-2.2S205.8,472.3,205.8,473.5L205.8,473.5z M208,471.3c-1.2,0-2.2,1-2.1,2.2c0,1.2,1,2.1,2.2,2.1 M213.3,478.1
			c0.3-0.3,0.6-0.7,0.8-1.1 M209.5,480.3c0.4-0.1,0.8-0.2,1.2-0.4 M210.7,467c-0.4-0.2-0.8-0.3-1.2-0.4 M214,469.9
			c-0.2-0.4-0.5-0.7-0.8-1.1 M215,474.1c0-0.4,0-0.9,0-1.3 M186.4,473.5c0,11.9,9.7,21.6,21.6,21.6c11.9,0,21.6-9.7,21.6-21.6
			s-9.7-21.6-21.6-21.6C196.1,451.9,186.4,461.5,186.4,473.5L186.4,473.5z"/>
	</g>
</g>
<g id="pusher2-arm" style="display:none;">
	<g>
		<path d="M234.9,469.4h2.6 M234.9,469v0.4 M237.5,469h-2.6 M237.5,469c0.2,0,0.4-0.2,0.4-0.4 M237.5,469.4
			c0.4,0,0.7-0.3,0.7-0.7 M238.2,468.7v-7.3 M237.8,468.7v-7.3 M237.5,460.6h-2.6 M234.9,460.6v0.4 M237.5,461h-2.6 M237.8,461.3
			c0-0.2-0.2-0.4-0.4-0.4 M238.2,461.3c0-0.4-0.3-0.7-0.7-0.7 M241.8,467.9c0,0.3,0.3,0.6,0.6,0.6s0.6-0.3,0.6-0.6s-0.3-0.6-0.6-0.6
			S241.8,467.6,241.8,467.9L241.8,467.9z M241.8,456.9c0,0.3,0.3,0.6,0.6,0.6s0.6-0.3,0.6-0.6s-0.3-0.6-0.6-0.6
			S241.8,456.6,241.8,456.9L241.8,456.9z M256.5,437c0-0.8-0.7-1.5-1.5-1.5 M238.6,435.5v1.5 M238.2,435.5v1.5 M238.2,437h0.4
			 M238.2,469v1.5 M238.2,469h0.4 M238.6,469v1.5 M238.2,470.5h0.4 M238.6,470.5h0.4 M238.9,470.5v-35 M238.9,435.5h16.1
			 M238.9,470.5h5.3 M244.3,470.5c0.7,0,1.3-0.5,1.5-1.3 M250.8,449.8c-1.4,0.1-2.5,1.1-2.7,2.5 M250.8,449.8l3-0.2 M253.8,449.6
			c1.5-0.1,2.7-1.4,2.7-2.9 M256.5,446.7V437 M238.2,437V469 M238.6,437V469 M250.9,462.1l-3.8-2.6 M253.1,459.2l-5.4-3.7
			 M247.5,458.7l-0.2,0.3 M247.5,458.7l3.9,2.7 M247.5,458.7c-0.1-0.1-0.2-0.1-0.3-0.2 M252.7,459.7l-5.1-3.5 M252.9,459.5l-5.3-3.6
			 M247.3,459c0,0-0.1-0.1-0.1-0.1 M251.2,461.7l-3.9-2.7 M246.1,467.6c0.3,0.2,0.7,0.3,1.1,0.2 M246.1,467.6l-0.2-0.1 M246.4,471.3
			l1.4,0.9 M245.3,470.1c0.3,0.5,0.7,0.9,1.1,1.2 M240.6,470.5c0.5,1.2,1.3,2.2,2.3,2.9 M242.9,473.4l5.1,3.5 M246.1,471.8l-0.2,0.3
			 M244.4,470.5c0.3,0.6,0.8,1.2,1.4,1.6 M247.7,473.3l-1.8-1.3 M241.7,470.5c0.5,0.1,0.9,0.1,1.4,0 M243.1,473.1l0.2-0.3
			 M241.4,470.5c0.4,0.9,1.1,1.7,2,2.3 M243.3,472.8l4.5,3.1 M247.9,476.4l-4.8-3.3 M241,470.5c0.5,1,1.2,1.9,2.2,2.6 M247.7,472.9
			l-1.6-1.1 M244.8,470.4c0.3,0.5,0.7,1,1.3,1.4 M241.9,456.9c0,0.3,0.2,0.5,0.5,0.5c0.3,0,0.5-0.2,0.5-0.5c0-0.3-0.2-0.5-0.5-0.5
			C242.1,456.4,241.9,456.6,241.9,456.9L241.9,456.9z M241.9,467.9c0,0.3,0.2,0.5,0.5,0.5c0.3,0,0.5-0.2,0.5-0.5s-0.2-0.5-0.5-0.5
			C242.1,467.4,241.9,467.6,241.9,467.9L241.9,467.9z M238.3,435.4h0.4 M238.6,435.4h0.4 M248.2,452.3l-2.4,16.9 M247.3,467.8
			l1.3-0.2"/>
	</g>
</g>
<g id="frame-fill-p2">
	<g>
		<line class="st0" x1="236.6" y1="447.1" x2="256.4" y2="447.1"/>
		<line class="st0" x1="236.4" y1="448.7" x2="255.8" y2="448.7"/>
	</g>
</g>
<g id="pusher2" style="display:none; stroke:white;">
	<g>
		<path class="st2" d="M262.5,473.4l-0.7-0.5 M261.9,472.8c0.2,0.3,0.4,0.5,0.7,0.6 M264.3,468.8c-0.4-0.1-0.9,0-1.3,0.1 M262,472.8
			c0.2,0.2,0.4,0.4,0.6,0.6 M264.1,469.2c-0.4,0-0.8,0-1.2,0.2 M277,474.2h-0.3 M263.8,469.6c-0.2,0-0.4,0.1-0.6,0.1 M263.8,478.5
			v-1 M275.6,477.1L275.6,477.1 M266.8,480.8v0.2 M271.7,465.8C271.7,465.8,271.7,465.8,271.7,465.8 M267.7,466.8v-0.9 M271.7,466.8
			v-1 M266.7,466.9l0.7,0 M271.8,466.9l0.6,0 M272.4,480.9c-0.4,0-0.7,0-1,0 M268,480.5c-0.4,0.1-0.4,0.2-0.1,0.3 M271.2,480.8
			c0.7-0.1,0.7-0.2-0.1-0.3 M272.6,480.3l-1.4,0 M266.6,480.3l1.4,0 M266.6,480.3l0,0.3 M266.6,480.7c0,0.1,0.5,0.2,1.2,0.3
			 M271.5,472.5c-0.4-0.7-1.1-1.2-1.9-1.2 M269.7,475.6c0.8,0,1.5-0.4,1.9-1.2 M267.6,473.5c0,1.1,0.9,2.1,2.1,2.1
			c1.1,0,2.1-0.9,2.1-2.1c0-1.1-0.9-2.1-2.1-2.1C268.5,471.4,267.6,472.3,267.6,473.5L267.6,473.5z M269.6,475.6
			c1.2,0,2.1-0.9,2.1-2.1c0-1.2-0.9-2.1-2.1-2.1 M269.6,471.4L269.6,471.4l-0.1,0l-0.1,0l-0.1,0l-0.1,0l-0.1,0l-0.1,0l-0.1,0l-0.1,0
			l0,0l0,0l0,0l0,0l0,0l0,0l0,0l0,0l0,0l0,0l0,0l0,0l0,0l0,0l0,0l0,0l0,0l0,0l0,0l0,0l0,0l0,0l0,0l0,0l0,0l0,0l0,0l0,0l0,0l0,0l0,0
			l0,0l0,0l0,0l0,0l0,0l0,0l0,0l0,0l0,0l0,0l0,0l0,0l0,0l0,0l0,0l0,0.1l0,0.1l0,0.1l0,0.1l0,0.1l0,0.1l0,0.1l0,0.1v0.1v0.1l0,0.1
			l0,0.1l0,0.1l0,0.1l0,0.1l0,0.1l0,0.1l0,0.1l0,0l0,0l0,0l0,0l0,0l0,0l0,0l0,0l0,0l0,0l0,0l0,0l0,0l0,0l0,0l0,0l0,0l0,0l0,0l0,0
			l0,0l0,0l0,0l0,0l0,0l0,0l0,0l0,0l0,0l0,0l0,0l0,0l0,0l0,0l0,0l0,0l0,0l0,0l0,0l0,0l0,0l0,0l0,0l0,0l0,0l0,0l0.1,0l0.1,0l0.1,0
			l0.1,0l0.1,0l0.1,0l0.1,0l0.1,0h0.1 M267.7,473.5c0,1.1,0.9,2,2,2c1.1,0,2-0.9,2-2c0-1.1-0.9-2-2-2
			C268.5,471.5,267.7,472.4,267.7,473.5L267.7,473.5z M269.6,475.1c0.9,0,1.6-0.7,1.6-1.6s-0.7-1.6-1.6-1.6 M268.7,473.5
			c0,0.4,0.3,0.8,0.8,0.8s0.8-0.3,0.8-0.8c0-0.4-0.3-0.8-0.8-0.8S268.7,473,268.7,473.5L268.7,473.5z M268.7,473.5
			c0,0.5,0.4,0.8,0.8,0.8c0.5,0,0.8-0.4,0.8-0.8c0-0.5-0.4-0.8-0.8-0.8C269.1,472.7,268.7,473,268.7,473.5L268.7,473.5z
			 M269.5,474.3c0.5,0,0.8-0.4,0.8-0.8c0-0.5-0.4-0.8-0.8-0.8 M268.6,473.5c0,0.5,0.4,0.9,0.9,0.9s0.9-0.4,0.9-0.9s-0.4-0.9-0.9-0.9
			S268.6,473,268.6,473.5L268.6,473.5z M268.6,473.5c0,0.5,0.4,1,1,1c0.5,0,1-0.4,1-1c0-0.5-0.4-1-1-1
			C269,472.5,268.6,472.9,268.6,473.5L268.6,473.5z M268.5,473.5c0,0.6,0.5,1,1,1s1-0.5,1-1c0-0.6-0.5-1-1-1
			S268.5,472.9,268.5,473.5L268.5,473.5z M269.6,474.5c0.6,0,1-0.5,1-1c0-0.6-0.5-1-1-1 M269.6,474.5L269.6,474.5 M269.6,472.5
			L269.6,472.5 M268,473.5c0,0.9,0.7,1.6,1.6,1.6s1.6-0.7,1.6-1.6c0-0.9-0.7-1.6-1.6-1.6C268.7,471.9,268,472.6,268,473.5L268,473.5
			z M269.7,475.6L269.7,475.6 M269.6,471.4L269.6,471.4 M269.5,474.3L269.5,474.3 M269.5,472.7L269.5,472.7 M269.6,475.1
			L269.6,475.1 M269.6,471.9L269.6,471.9 M269.6,482.6c5.1,0,9.2-4.1,9.2-9.2s-4.1-9.2-9.2-9.2 M269.6,464.2c-5.1,0-9.3,4.2-9.3,9.3
			s4.2,9.3,9.3,9.3c5.1,0,9.3-4.2,9.3-9.3C278.9,468.3,274.7,464.2,269.6,464.2L269.6,464.2z M269.6,482.6c5.1,0,9.2-4.1,9.2-9.2
			c0-5.1-4.1-9.2-9.2-9.2 M272.8,485.5l-0.3-0.6l-0.5-0.5l-0.6-0.4l-0.7-0.2l-0.8-0.1l-0.8,0l-0.8,0.1l-0.7,0.2l-0.6,0.4l-0.5,0.5
			l-0.3,0.6l0,0.7l0.3,0.6l0.5,0.5l0.6,0.4l0.7,0.3l0.8,0.1l0.8,0l0.8-0.1l0.7-0.3l0.6-0.4l0.5-0.5l0.3-0.6L272.8,485.5
			 M266.3,461.4l0.3,0.6l0.5,0.5l0.6,0.4l0.7,0.2l0.8,0.1l0.8,0l0.8-0.1l0.7-0.2l0.6-0.4l0.5-0.5l0.3-0.6l0-0.7l-0.3-0.6l-0.5-0.5
			l-0.6-0.4l-0.7-0.3l-0.8-0.1l-0.8,0l-0.8,0.1l-0.7,0.3l-0.6,0.4l-0.5,0.5l-0.3,0.6L266.3,461.4 M269.6,482.3c4.9,0,8.9-4,8.9-8.9
			c0-4.9-4-8.9-8.9-8.9s-8.9,4-8.9,8.9C260.7,478.4,264.7,482.4,269.6,482.3L269.6,482.3z M269.6,479.3c3.2,0,5.9-2.6,5.9-5.9
			c0-3.2-2.6-5.9-5.9-5.9c-3.2,0-5.9,2.6-5.9,5.9C263.7,476.7,266.3,479.3,269.6,479.3L269.6,479.3z M261.5,473.5
			c0,0.4,0.3,0.7,0.7,0.7s0.7-0.3,0.7-0.7s-0.3-0.7-0.7-0.7C261.8,472.8,261.5,473.1,261.5,473.5L261.5,473.5z M262.9,477.8
			c0,0.4,0.3,0.7,0.7,0.7s0.7-0.3,0.7-0.7s-0.3-0.7-0.7-0.7S262.9,477.4,262.9,477.8L262.9,477.8z M266.6,480.5
			c0,0.4,0.3,0.7,0.7,0.7s0.7-0.3,0.7-0.7c0-0.4-0.3-0.7-0.7-0.7S266.6,480,266.6,480.5L266.6,480.5z M271.1,480.4
			c0,0.4,0.3,0.7,0.7,0.7c0.4,0,0.7-0.3,0.7-0.7c0-0.4-0.3-0.7-0.7-0.7C271.4,479.7,271.1,480,271.1,480.4L271.1,480.4z
			 M274.8,477.8c0,0.4,0.3,0.7,0.7,0.7s0.7-0.3,0.7-0.7s-0.3-0.7-0.7-0.7S274.8,477.4,274.8,477.8L274.8,477.8z M276.2,473.5
			c0,0.4,0.3,0.7,0.7,0.7s0.7-0.3,0.7-0.7c0-0.4-0.3-0.7-0.7-0.7S276.2,473.1,276.2,473.5L276.2,473.5z M274.8,469.2
			c0,0.4,0.3,0.7,0.7,0.7s0.7-0.3,0.7-0.7s-0.3-0.7-0.7-0.7S274.8,468.8,274.8,469.2L274.8,469.2z M271.1,466.5
			c0,0.4,0.3,0.7,0.7,0.7c0.4,0,0.7-0.3,0.7-0.7s-0.3-0.7-0.7-0.7C271.4,465.8,271.1,466.1,271.1,466.5L271.1,466.5z M266.6,466.5
			c0,0.4,0.3,0.7,0.7,0.7s0.7-0.3,0.7-0.7s-0.3-0.7-0.7-0.7S266.6,466.1,266.6,466.5L266.6,466.5z M262.9,469.2
			c0,0.4,0.3,0.7,0.7,0.7s0.7-0.3,0.7-0.7s-0.3-0.7-0.7-0.7S262.9,468.8,262.9,469.2L262.9,469.2z M266.3,461.4l0,0.1l0.1,0.1
			l0.1,0.1l0.1,0.1l0.1,0.1l0.1,0.1l0.1,0.1l0.1,0.1l0.1,0.1l0.1,0.1l0.1,0.1l0.1,0.1l0.1,0.1l0.2,0.1l0.2,0.1l0.2,0.1l0.2,0l0.2,0
			l0.2,0l0.2,0l0.2,0l0.2,0l0.2,0l0.2,0 M269.6,458.8l-0.2,0l-0.2,0l-0.2,0l-0.2,0l-0.2,0l-0.2,0l-0.2,0.1l-0.2,0.1l-0.2,0.1
			l-0.2,0.1l-0.2,0.1l-0.2,0.1l-0.2,0.1l-0.1,0.1l-0.1,0.1l-0.1,0.2l-0.1,0.2l-0.1,0.2l-0.1,0.2l-0.1,0.2l0,0.2l0,0.2l0,0.2l0,0.2
			 M269.6,483.7l-0.4,0l-0.4,0l-0.4,0.1l-0.4,0.1l-0.3,0.1l-0.3,0.2l-0.3,0.2l-0.3,0.2l-0.2,0.3l-0.2,0.3l-0.1,0.3l0,0.3l0,0.3
			l0.1,0.3l0.2,0.3l0.2,0.3l0.3,0.2l0.3,0.2l0.3,0.2l0.4,0.1l0.4,0.1l0.4,0.1l0.4,0l0.4,0 M263.6,468.4c-0.4,0-0.7,0.3-0.7,0.7
			c0,0.4,0.3,0.7,0.7,0.7 M267.3,465.8c-0.4,0-0.7,0.3-0.7,0.7c0,0.4,0.3,0.7,0.7,0.7 M271.8,465.8c-0.4,0-0.7,0.3-0.7,0.7
			c0,0.4,0.3,0.7,0.7,0.7 M275.5,468.4c-0.4,0-0.7,0.3-0.7,0.7c0,0.4,0.3,0.7,0.7,0.7 M276.9,472.7c-0.4,0-0.7,0.3-0.7,0.7
			c0,0.4,0.3,0.7,0.7,0.7 M275.5,477.1c-0.4,0-0.7,0.3-0.7,0.7c0,0.4,0.3,0.7,0.7,0.7 M271.8,479.7c-0.4,0-0.7,0.3-0.7,0.7
			c0,0.4,0.3,0.7,0.7,0.7 M267.3,479.7c-0.4,0-0.7,0.3-0.7,0.7c0,0.4,0.3,0.7,0.7,0.7 M263.6,477.1c-0.4,0-0.7,0.3-0.7,0.7
			c0,0.4,0.3,0.7,0.7,0.7 M262.2,472.8c-0.4,0-0.7,0.3-0.7,0.7c0,0.4,0.3,0.7,0.7,0.7 M269.6,467.6c-3.2,0-5.9,2.6-5.9,5.9
			c0,3.2,2.6,5.9,5.9,5.9 M269.5,488.1l0.1,0 M269.6,458.8l-0.1,0 M269.6,464.3L269.6,464.3 M269.6,482.6L269.6,482.6 M269.6,464.3
			l-0.1,0l-0.1,0l-0.1,0l-0.1,0l-0.1,0l-0.1,0l-0.1,0l-0.1,0l-0.1,0l-0.1,0l-0.1,0l-0.1,0l-0.1,0l-0.1,0l-0.1,0l-0.1,0l-0.1,0
			l-0.1,0l-0.1,0l-0.1,0l-0.1,0l-0.1,0l-0.1,0l-0.1,0l-0.1,0l-0.1,0l-0.1,0l-0.1,0l-0.1,0l-0.1,0l-0.1,0l-0.1,0l-0.1,0l-0.1,0
			l-0.1,0l-0.1,0l-0.1,0l-0.1,0l-0.1,0.1l-0.1,0.1l-0.1,0.1l-0.1,0.1l-0.1,0.1l-0.1,0.1l-0.1,0.1l-0.1,0.1l-0.1,0.1l-0.1,0.1
			l-0.1,0.1l-0.1,0.1l-0.1,0.1l-0.1,0.1l-0.1,0.1l-0.1,0.1l-0.1,0.1l-0.1,0.1l-0.1,0.1l-0.1,0.1l-0.1,0.1l-0.1,0.1l-0.1,0.1
			l-0.1,0.1l-0.1,0.1l-0.1,0.1l-0.1,0.1l-0.1,0.1l-0.1,0.1l-0.1,0.1l-0.1,0.1l-0.1,0.1l-0.1,0.1l-0.1,0.1l-0.1,0.1l-0.1,0.1
			l-0.1,0.1l-0.1,0.1l-0.1,0.1l-0.1,0.1l-0.1,0.1l-0.1,0.1l-0.1,0.1l-0.1,0.1l-0.1,0.1l-0.1,0.1l-0.1,0.1l-0.1,0.1l-0.1,0.1
			l-0.1,0.1l-0.1,0.1l-0.1,0.1l0,0.1l0,0.1l0,0.1l0,0.1l0,0.1l0,0.1l0,0.1l0,0.1l0,0.1l0,0.1l0,0.1l0,0.1l0,0.1l0,0.1l0,0.1l0,0.1
			l0,0.1l0,0.1l0,0.1l0,0.1l0,0.1l0,0.1l0,0.1l0,0.1l0,0.1l0,0.1l0,0.1l0,0.1l0,0.1l0,0.1l0,0.1l0,0.1l0,0.1l0,0.1l0,0.1l0,0.1
			l0,0.1v0.1l0,0.1l0,0.1l0,0.1l0,0.1l0,0.1l0,0.1l0,0.1l0,0.1l0,0.1l0,0.1l0,0.1l0,0.1l0,0.1l0,0.1l0,0.1l0,0.1l0,0.1l0,0.1l0,0.1
			l0,0.1l0,0.1l0,0.1l0,0.1l0,0.1l0,0.1l0,0.1l0,0.1l0,0.1l0,0.1l0,0.1l0,0.1l0,0.1l0,0.1l0,0.1l0,0.1l0,0.1l0,0.1l0,0.1l0.1,0.1
			l0.1,0.1l0.1,0.1l0.1,0.1l0.1,0.1l0.1,0.1l0.1,0.1l0.1,0.1l0.1,0.1l0.1,0.1l0.1,0.1l0.1,0.1l0.1,0.1l0.1,0.1l0.1,0.1l0.1,0.1
			l0.1,0.1l0.1,0.1l0.1,0.1l0.1,0.1l0.1,0.1l0.1,0.1l0.1,0.1l0.1,0.1l0.1,0.1l0.1,0.1l0.1,0.1l0.1,0.1l0.1,0.1l0.1,0.1l0.1,0.1
			l0.1,0.1l0.1,0.1l0.1,0.1l0.1,0.1l0.1,0.1l0.1,0.1l0.1,0.1l0.1,0.1l0.1,0.1l0.1,0.1l0.1,0.1l0.1,0.1l0.1,0.1l0.1,0.1l0.1,0.1
			l0.1,0.1l0.1,0.1l0.1,0.1l0.1,0.1l0.1,0.1l0.1,0.1l0.1,0l0.1,0l0.1,0l0.1,0l0.1,0l0.1,0l0.1,0l0.1,0l0.1,0l0.1,0l0.1,0l0.1,0
			l0.1,0l0.1,0l0.1,0l0.1,0l0.1,0l0.1,0l0.1,0l0.1,0l0.1,0l0.1,0l0.1,0l0.1,0l0.1,0l0.1,0l0.1,0l0.1,0l0.1,0l0.1,0l0.1,0l0.1,0
			l0.1,0l0.1,0l0.1,0l0.1,0l0.1,0h0.1 M269.6,494.6L269.6,494.6 M269.6,458.4c-8.3,0-15,6.7-15,15.1c0,8.3,6.7,15,15.1,15
			c8.3,0,15-6.7,15-15.1C284.6,465.2,277.9,458.4,269.6,458.4L269.6,458.4z M269.6,452.4c-11.6,0-21,9.4-21,21.1
			c0,11.6,9.4,21,21.1,21c11.6,0,21-9.4,21-21.1C290.6,461.8,281.2,452.4,269.6,452.4L269.6,452.4z M269.6,476.6
			c1.7,0,3.1-1.4,3.1-3.1c0-1.7-1.4-3.1-3.1-3.1 M269.6,469.3c-2.3,0-4.2,1.9-4.2,4.2c0,2.3,1.9,4.2,4.2,4.2 M274.8,478.1
			c0.3-0.3,0.5-0.6,0.7-1 M271.1,480.3c0.4-0.1,0.8-0.2,1.2-0.4 M266.8,479.9c0.4,0.2,0.8,0.3,1.2,0.4 M263.6,477.1
			c0.2,0.4,0.5,0.7,0.7,1 M262.6,472.9c0,0.4,0,0.8,0,1.2 M264.3,468.9c-0.3,0.3-0.5,0.6-0.7,1 M268,466.7c-0.4,0.1-0.8,0.2-1.2,0.4
			 M272.3,467.1c-0.4-0.2-0.8-0.3-1.2-0.4 M275.5,469.9c-0.2-0.4-0.5-0.7-0.7-1 M276.5,474.1c0-0.4,0-0.8,0-1.2 M268.1,469.5
			c-1.9,0.7-3,2.7-2.7,4.7 M271,468.9c-0.5-0.2-1-0.2-1.5-0.2 M271,468.9v0.6 M273.7,474.2c0.3-2-0.8-4-2.7-4.7 M274.2,474.5
			l-0.5-0.3 M272.8,477c0.7-0.7,1.3-1.6,1.5-2.5 M266.9,476.7c1.6,1.3,3.8,1.3,5.4,0 M266.9,476.7l-0.5,0.3 M266.4,477L266.4,477
			 M264.9,474.5c0.2,1,0.7,1.9,1.5,2.5 M274.2,474.5L274.2,474.5 M272.8,477c0.7-0.7,1.3-1.6,1.5-2.5 M272.8,477L272.8,477
			 M271,468.9c-1-0.3-2-0.3-2.9,0 M271,468.9L271,468.9 M269.6,468.7L269.6,468.7 M274.1,474.4l0.2,0.1 M272.6,476.9
			c0.8-0.7,1.3-1.6,1.5-2.5 M272.8,477l-0.2-0.1 M266.5,476.9l-0.2,0.1 M264.9,474.5l0.2-0.1 M266.4,473.5c0,1.7,1.4,3.1,3.1,3.1
			s3.1-1.4,3.1-3.1c0-1.7-1.4-3.1-3.1-3.1S266.4,471.7,266.4,473.5L266.4,473.5z M266.9,476.7L266.9,476.7 M266.9,476.7l-0.3,0.2
			 M266.5,476.9L266.5,476.9 M265.4,474.2L265.4,474.2 M265.4,474.2c0.2,1,0.7,1.9,1.5,2.5 M272.2,476.7c0.8-0.6,1.3-1.5,1.5-2.5
			 M273.7,474.2L273.7,474.2 M271,469.5L271,469.5 M271,469.5c-0.9-0.4-2-0.3-2.9,0 M268.1,469.5L268.1,469.5 M265.1,474.4l0.3-0.2
			 M265.1,474.4c0.2,1,0.7,1.9,1.5,2.5 M268.1,469.5v-0.4 M268.1,468.9v0.2 M271,469.1L271,469.1 M271,469.5v-0.4 M271,468.9v0.2
			 M271,469.1c-0.5-0.2-1-0.2-1.5-0.2 M271,469.1c-1-0.3-2-0.3-2.9,0 M273.7,474.2l0.3,0.2 M274,474.4L274,474.4 M272.6,476.9
			L272.6,476.9 M272.6,476.9l-0.3-0.2 M272.6,476.9c0.8-0.7,1.3-1.6,1.5-2.5 M269.6,470.3L269.6,470.3 M269.6,476.6L269.6,476.6
			 M269.6,468.9L269.6,468.9 M267.4,473.5c0,1.2,1,2.2,2.2,2.2c1.2,0,2.2-1,2.2-2.2c0-1.2-1-2.2-2.2-2.2
			C268.3,471.3,267.4,472.3,267.4,473.5L267.4,473.5z M269.6,471.3c-1.2,0-2.2,1-2.1,2.2c0,1.2,1,2.1,2.2,2.1 M274.8,478.1
			c0.3-0.3,0.6-0.7,0.8-1.1 M271.1,480.3c0.4-0.1,0.8-0.2,1.2-0.4 M272.3,467c-0.4-0.2-0.8-0.3-1.2-0.4 M275.6,469.9
			c-0.2-0.4-0.5-0.7-0.8-1.1 M276.6,474.1c0-0.4,0-0.9,0-1.3 M248,473.5c0,11.9,9.7,21.6,21.6,21.6s21.6-9.7,21.6-21.6
			s-9.7-21.6-21.6-21.6S248,461.5,248,473.5L248,473.5z"/>
	</g>
</g>
<g id="pusher3-arm" style="display:none;">
	<g>
		<path d="M296.6,469.3h2.6 M296.6,468.9v0.4 M299.1,468.9h-2.6 M299.1,468.9c0.2,0,0.4-0.2,0.4-0.4 M299.1,469.3
			c0.4,0,0.7-0.3,0.7-0.7 M299.9,461.2v7.3 M299.5,461.2v7.3 M299.1,460.5h-2.6 M296.6,460.5v0.4 M299.1,460.9h-2.6 M299.5,461.2
			c0-0.2-0.2-0.4-0.4-0.4 M299.9,461.2c0-0.4-0.3-0.7-0.7-0.7 M303.5,467.8c0,0.3,0.3,0.6,0.6,0.6s0.6-0.3,0.6-0.6s-0.3-0.6-0.6-0.6
			S303.5,467.5,303.5,467.8L303.5,467.8z M303.5,456.8c0,0.3,0.3,0.6,0.6,0.6s0.6-0.3,0.6-0.6s-0.3-0.6-0.6-0.6
			S303.5,456.5,303.5,456.8L303.5,456.8z M318.2,436.9c0-0.8-0.7-1.5-1.5-1.5 M300.2,435.4v1.5 M299.9,435.4v1.5 M299.9,436.9h0.4
			 M299.9,468.9v1.5 M299.9,468.9h0.4 M300.2,468.9v1.5 M299.9,470.4h0.4 M300.2,470.4h0.4 M300.6,470.4v-35 M300.6,435.4h16.1
			 M305.9,470.4h-5.3 M305.9,470.4c0.7,0,1.3-0.5,1.5-1.3 M312.5,449.7c-1.4,0.1-2.5,1.1-2.7,2.5 M312.5,449.7l3-0.2 M315.4,449.5
			c1.5-0.1,2.7-1.4,2.7-2.9 M318.2,446.6v-9.7 M299.9,436.9v32.1 M300.2,436.9v32.1 M312.6,462l-3.8-2.6 M309.3,455.3l5.4,3.7
			 M309.2,458.6l-0.2,0.3 M313.1,461.3l-3.9-2.7 M309.2,458.6c-0.1-0.1-0.2-0.1-0.3-0.2 M314.3,459.6l-5.1-3.5 M314.5,459.4
			l-5.3-3.6 M309,458.9c0,0-0.1-0.1-0.1-0.1 M312.9,461.6l-3.9-2.7 M307.8,467.5c0.3,0.2,0.7,0.3,1.1,0.2 M307.8,467.5l-0.2-0.1
			 M309.4,472.2l-1.4-0.9 M306.9,470c0.3,0.5,0.7,0.9,1.1,1.2 M302.2,470.4c0.5,1.2,1.3,2.2,2.3,2.9 M309.6,476.8l-5.1-3.5
			 M307.7,471.7l-0.2,0.3 M306.1,470.4c0.3,0.6,0.8,1.2,1.4,1.6 M309.3,473.2l-1.8-1.3 M303.4,470.4c0.5,0.1,0.9,0.1,1.4,0
			 M304.8,473l0.2-0.3 M303,470.4c0.4,0.9,1.1,1.7,2,2.3 M305,472.7l4.5,3.1 M304.8,473l4.8,3.3 M302.6,470.4c0.5,1,1.2,1.9,2.2,2.6
			 M307.7,471.7l1.6,1.1 M306.4,470.3c0.3,0.5,0.7,1,1.3,1.4 M303.5,456.8c0,0.3,0.2,0.5,0.5,0.5s0.5-0.2,0.5-0.5
			c0-0.3-0.2-0.5-0.5-0.5S303.5,456.5,303.5,456.8L303.5,456.8z M303.5,467.8c0,0.3,0.2,0.5,0.5,0.5s0.5-0.2,0.5-0.5
			c0-0.3-0.2-0.5-0.5-0.5S303.5,467.5,303.5,467.8L303.5,467.8z M300.3,435.3h-0.4 M300.6,435.3h-0.4 M307.4,469.1l2.4-16.9
			 M308.9,467.7l1.3-0.2"/>
	</g>
</g>
<g id="frame-fill-p3">
	<g>
		<line class="st0" x1="299.6" y1="447.1" x2="325.6" y2="447.1"/>
		<line class="st0" x1="299.9" y1="448.7" x2="327.4" y2="448.7"/>
	</g>
</g>
<g id="pusher3" style="display:none; stroke:white;">
	<g>
		<path class="st2" d="M324.1,473.4l-0.7-0.5 M323.5,472.8c0.2,0.3,0.4,0.5,0.7,0.6 M325.8,468.8c-0.4-0.1-0.9,0-1.3,0.1
			 M323.6,472.8c0.2,0.2,0.4,0.4,0.6,0.6 M325.7,469.2c-0.4,0-0.8,0-1.2,0.2 M338.6,474.2h-0.3 M325.3,469.6c-0.2,0-0.4,0.1-0.6,0.1
			 M325.4,478.5v-1 M337.2,477.1L337.2,477.1 M328.4,481v-0.2 M333.3,465.8C333.3,465.8,333.3,465.8,333.3,465.8 M329.3,466.8v-0.9
			 M333.3,465.8v1 M328.2,466.9l0.7,0 M334,466.9l-0.6,0 M334,480.9c-0.4,0-0.7,0-1,0 M329.6,480.5c-0.4,0.1-0.4,0.2-0.1,0.3
			 M332.8,480.8c0.7-0.1,0.7-0.2-0.1-0.3 M334.1,480.3l-1.4,0 M329.6,480.3l-1.4,0 M328.2,480.7l0-0.3 M328.2,480.7
			c0,0.1,0.5,0.2,1.2,0.3 M333.1,472.5c-0.4-0.7-1.1-1.2-1.9-1.2 M331.2,475.6c0.8,0,1.5-0.4,1.9-1.2 M329.1,473.5
			c0,1.1,0.9,2.1,2.1,2.1c1.1,0,2.1-0.9,2.1-2.1c0-1.1-0.9-2.1-2.1-2.1C330.1,471.4,329.1,472.3,329.1,473.5L329.1,473.5z
			 M331.2,475.6c1.2,0,2.1-0.9,2.1-2.1c0-1.2-0.9-2.1-2.1-2.1 M331.2,471.4L331.2,471.4l-0.1,0l-0.1,0l-0.1,0l-0.1,0l-0.1,0l-0.1,0
			l-0.1,0l-0.1,0l0,0l0,0l0,0l0,0l0,0l0,0l0,0l0,0l0,0l0,0l0,0l0,0l0,0l0,0l0,0l0,0l0,0l0,0l0,0l0,0l0,0l0,0l0,0l0,0l0,0l0,0l0,0
			l0,0l0,0l0,0l0,0l0,0l0,0l0,0l0,0l0,0l0,0l0,0l0,0l0,0l0,0l0,0l0,0l0,0l0,0l0,0l0,0.1l0,0.1l0,0.1l0,0.1l0,0.1l0,0.1l0,0.1l0,0.1
			v0.1v0.1l0,0.1l0,0.1l0,0.1l0,0.1l0,0.1l0,0.1l0,0.1l0,0.1l0,0l0,0l0,0l0,0l0,0l0,0l0,0l0,0l0,0l0,0l0,0l0,0l0,0l0,0l0,0l0,0l0,0
			l0,0l0,0l0,0l0,0l0,0l0,0l0,0l0,0l0,0l0,0l0,0l0,0l0,0l0,0l0,0l0,0l0,0l0,0l0,0l0,0l0,0l0,0l0,0l0,0l0,0l0,0l0,0l0,0l0,0l0.1,0
			l0.1,0l0.1,0l0.1,0l0.1,0l0.1,0l0.1,0l0.1,0h0.1 M329.3,473.5c0,1.1,0.9,2,2,2s2-0.9,2-2c0-1.1-0.9-2-2-2S329.3,472.4,329.3,473.5
			L329.3,473.5z M331.2,475.1c0.9,0,1.6-0.7,1.6-1.6s-0.7-1.6-1.6-1.6 M330.3,473.5c0,0.4,0.3,0.8,0.8,0.8c0.4,0,0.8-0.3,0.8-0.8
			c0-0.4-0.3-0.8-0.8-0.8C330.7,472.7,330.3,473,330.3,473.5L330.3,473.5z M330.3,473.5c0,0.5,0.4,0.8,0.8,0.8
			c0.5,0,0.8-0.4,0.8-0.8c0-0.5-0.4-0.8-0.8-0.8C330.6,472.7,330.3,473,330.3,473.5L330.3,473.5z M331.1,474.3
			c0.5,0,0.8-0.4,0.8-0.8c0-0.5-0.4-0.8-0.8-0.8 M330.2,473.5c0,0.5,0.4,0.9,0.9,0.9s0.9-0.4,0.9-0.9s-0.4-0.9-0.9-0.9
			S330.2,473,330.2,473.5L330.2,473.5z M330.2,473.5c0,0.5,0.4,1,1,1c0.5,0,1-0.4,1-1c0-0.5-0.4-1-1-1
			C330.6,472.5,330.2,472.9,330.2,473.5L330.2,473.5z M330.1,473.5c0,0.6,0.5,1,1,1s1-0.5,1-1c0-0.6-0.5-1-1-1
			S330.1,472.9,330.1,473.5L330.1,473.5z M331.1,474.5c0.6,0,1-0.5,1-1c0-0.6-0.5-1-1-1 M331.1,474.5L331.1,474.5 M331.1,472.5
			L331.1,472.5 M329.6,473.5c0,0.9,0.7,1.6,1.6,1.6c0.9,0,1.6-0.7,1.6-1.6c0-0.9-0.7-1.6-1.6-1.6
			C330.3,471.9,329.6,472.6,329.6,473.5L329.6,473.5z M331.2,475.6L331.2,475.6 M331.2,471.4L331.2,471.4 M331.1,474.3L331.1,474.3
			 M331.1,472.7L331.1,472.7 M331.2,475.1L331.2,475.1 M331.2,471.9L331.2,471.9 M331.1,482.6c5.1,0,9.2-4.1,9.2-9.2
			c0-5.1-4.1-9.2-9.2-9.2 M331.1,464.2c-5.1,0-9.3,4.2-9.3,9.3s4.2,9.3,9.3,9.3c5.1,0,9.3-4.2,9.3-9.3
			C340.4,468.3,336.3,464.2,331.1,464.2L331.1,464.2z M331.1,482.6c5.1,0,9.2-4.1,9.2-9.2c0-5.1-4.1-9.2-9.2-9.2 M334.4,485.5
			l-0.3-0.6l-0.5-0.5l-0.6-0.4l-0.7-0.2l-0.8-0.1l-0.8,0l-0.8,0.1l-0.7,0.2l-0.6,0.4l-0.5,0.5l-0.3,0.6l0,0.7l0.3,0.6l0.5,0.5
			l0.6,0.4l0.7,0.3l0.8,0.1l0.8,0l0.8-0.1l0.7-0.3l0.6-0.4l0.5-0.5l0.3-0.6L334.4,485.5 M327.9,461.4l0.3,0.6l0.5,0.5l0.6,0.4
			l0.7,0.2l0.8,0.1l0.8,0l0.8-0.1l0.7-0.2l0.6-0.4l0.5-0.5l0.3-0.6l0-0.7l-0.3-0.6l-0.5-0.5l-0.6-0.4l-0.7-0.3l-0.8-0.1l-0.8,0
			L330,459l-0.7,0.3l-0.6,0.4l-0.5,0.5l-0.3,0.6L327.9,461.4 M331.1,482.3c4.9,0,8.9-4,8.9-8.9c0-4.9-4-8.9-8.9-8.9s-8.9,4-8.9,8.9
			C322.3,478.4,326.2,482.4,331.1,482.3L331.1,482.3z M331.1,479.3c3.2,0,5.9-2.6,5.9-5.9c0-3.2-2.6-5.9-5.9-5.9
			c-3.2,0-5.9,2.6-5.9,5.9C325.3,476.7,327.9,479.3,331.1,479.3L331.1,479.3z M323.1,473.5c0,0.4,0.3,0.7,0.7,0.7s0.7-0.3,0.7-0.7
			s-0.3-0.7-0.7-0.7C323.4,472.8,323.1,473.1,323.1,473.5L323.1,473.5z M324.5,477.8c0,0.4,0.3,0.7,0.7,0.7s0.7-0.3,0.7-0.7
			s-0.3-0.7-0.7-0.7S324.5,477.4,324.5,477.8L324.5,477.8z M328.1,480.5c0,0.4,0.3,0.7,0.7,0.7c0.4,0,0.7-0.3,0.7-0.7
			c0-0.4-0.3-0.7-0.7-0.7C328.5,479.7,328.1,480,328.1,480.5L328.1,480.5z M332.7,480.4c0,0.4,0.3,0.7,0.7,0.7s0.7-0.3,0.7-0.7
			c0-0.4-0.3-0.7-0.7-0.7S332.7,480,332.7,480.4L332.7,480.4z M336.3,477.8c0,0.4,0.3,0.7,0.7,0.7s0.7-0.3,0.7-0.7s-0.3-0.7-0.7-0.7
			S336.3,477.4,336.3,477.8L336.3,477.8z M337.7,473.5c0,0.4,0.3,0.7,0.7,0.7c0.4,0,0.7-0.3,0.7-0.7c0-0.4-0.3-0.7-0.7-0.7
			C338.1,472.7,337.7,473.1,337.7,473.5L337.7,473.5z M336.3,469.2c0,0.4,0.3,0.7,0.7,0.7s0.7-0.3,0.7-0.7s-0.3-0.7-0.7-0.7
			S336.3,468.8,336.3,469.2L336.3,469.2z M332.7,466.5c0,0.4,0.3,0.7,0.7,0.7s0.7-0.3,0.7-0.7s-0.3-0.7-0.7-0.7
			S332.7,466.1,332.7,466.5L332.7,466.5z M328.1,466.5c0,0.4,0.3,0.7,0.7,0.7c0.4,0,0.7-0.3,0.7-0.7s-0.3-0.7-0.7-0.7
			C328.5,465.8,328.1,466.1,328.1,466.5L328.1,466.5z M324.5,469.2c0,0.4,0.3,0.7,0.7,0.7s0.7-0.3,0.7-0.7s-0.3-0.7-0.7-0.7
			S324.5,468.8,324.5,469.2L324.5,469.2z M327.9,461.4l0,0.1l0.1,0.1l0.1,0.1l0.1,0.1l0.1,0.1l0.1,0.1l0.1,0.1l0.1,0.1l0.1,0.1
			l0.1,0.1l0.1,0.1l0.1,0.1l0.1,0.1l0.2,0.1l0.2,0.1l0.2,0.1l0.2,0l0.2,0l0.2,0l0.2,0l0.2,0l0.2,0l0.2,0l0.2,0 M331.2,458.8l-0.2,0
			l-0.2,0l-0.2,0l-0.2,0l-0.2,0l-0.2,0l-0.2,0.1l-0.2,0.1l-0.2,0.1l-0.2,0.1l-0.2,0.1l-0.2,0.1l-0.2,0.1l-0.1,0.1l-0.1,0.1l-0.1,0.2
			l-0.1,0.2l-0.1,0.2l-0.1,0.2l-0.1,0.2l0,0.2l0,0.2l0,0.2l0,0.2 M331.2,483.7l-0.4,0l-0.4,0l-0.4,0.1l-0.4,0.1l-0.3,0.1l-0.3,0.2
			l-0.3,0.2l-0.3,0.2l-0.2,0.3l-0.2,0.3l-0.1,0.3l0,0.3l0,0.3l0.1,0.3l0.2,0.3l0.2,0.3l0.3,0.2l0.3,0.2l0.3,0.2l0.4,0.1l0.4,0.1
			l0.4,0.1l0.4,0l0.4,0 M325.2,468.4c-0.4,0-0.7,0.3-0.7,0.7c0,0.4,0.3,0.7,0.7,0.7 M328.9,465.8c-0.4,0-0.7,0.3-0.7,0.7
			c0,0.4,0.3,0.7,0.7,0.7 M333.4,465.8c-0.4,0-0.7,0.3-0.7,0.7c0,0.4,0.3,0.7,0.7,0.7 M337.1,468.4c-0.4,0-0.7,0.3-0.7,0.7
			c0,0.4,0.3,0.7,0.7,0.7 M338.5,472.7c-0.4,0-0.7,0.3-0.7,0.7c0,0.4,0.3,0.7,0.7,0.7 M337.1,477.1c-0.4,0-0.7,0.3-0.7,0.7
			c0,0.4,0.3,0.7,0.7,0.7 M333.4,479.7c-0.4,0-0.7,0.3-0.7,0.7c0,0.4,0.3,0.7,0.7,0.7 M328.9,479.7c-0.4,0-0.7,0.3-0.7,0.7
			c0,0.4,0.3,0.7,0.7,0.7 M325.2,477.1c-0.4,0-0.7,0.3-0.7,0.7c0,0.4,0.3,0.7,0.7,0.7 M323.8,472.8c-0.4,0-0.7,0.3-0.7,0.7
			c0,0.4,0.3,0.7,0.7,0.7 M331.1,467.6c-3.2,0-5.9,2.6-5.9,5.9c0,3.2,2.6,5.9,5.9,5.9 M331.1,488.1l0.1,0 M331.1,458.8l0.1,0
			 M331.1,464.3L331.1,464.3 M331.1,482.6L331.1,482.6 M331.1,464.3l-0.1,0l-0.1,0l-0.1,0l-0.1,0l-0.1,0l-0.1,0l-0.1,0l-0.1,0
			l-0.1,0l-0.1,0l-0.1,0l-0.1,0l-0.1,0l-0.1,0l-0.1,0l-0.1,0l-0.1,0l-0.1,0l-0.1,0l-0.1,0l-0.1,0l-0.1,0l-0.1,0l-0.1,0l-0.1,0
			l-0.1,0l-0.1,0l-0.1,0l-0.1,0l-0.1,0l-0.1,0l-0.1,0l-0.1,0l-0.1,0l-0.1,0l-0.1,0l-0.1,0l-0.1,0l-0.1,0.1l-0.1,0.1l-0.1,0.1
			l-0.1,0.1l-0.1,0.1l-0.1,0.1l-0.1,0.1l-0.1,0.1l-0.1,0.1l-0.1,0.1l-0.1,0.1l-0.1,0.1l-0.1,0.1l-0.1,0.1l-0.1,0.1l-0.1,0.1
			l-0.1,0.1l-0.1,0.1l-0.1,0.1l-0.1,0.1l-0.1,0.1l-0.1,0.1l-0.1,0.1l-0.1,0.1l-0.1,0.1l-0.1,0.1l-0.1,0.1l-0.1,0.1l-0.1,0.1
			l-0.1,0.1l-0.1,0.1l-0.1,0.1l-0.1,0.1l-0.1,0.1l-0.1,0.1l-0.1,0.1l-0.1,0.1l-0.1,0.1l-0.1,0.1l-0.1,0.1l-0.1,0.1l-0.1,0.1
			l-0.1,0.1l-0.1,0.1l-0.1,0.1l-0.1,0.1l-0.1,0.1l-0.1,0.1l-0.1,0.1l-0.1,0.1l-0.1,0.1l-0.1,0.1l0,0.1l0,0.1l0,0.1l0,0.1l0,0.1
			l0,0.1l0,0.1l0,0.1l0,0.1l0,0.1l0,0.1l0,0.1l0,0.1l0,0.1l0,0.1l0,0.1l0,0.1l0,0.1l0,0.1l0,0.1l0,0.1l0,0.1l0,0.1l0,0.1l0,0.1
			l0,0.1l0,0.1l0,0.1l0,0.1l0,0.1l0,0.1l0,0.1l0,0.1l0,0.1l0,0.1l0,0.1l0,0.1v0.1l0,0.1l0,0.1l0,0.1l0,0.1l0,0.1l0,0.1l0,0.1l0,0.1
			l0,0.1l0,0.1l0,0.1l0,0.1l0,0.1l0,0.1l0,0.1l0,0.1l0,0.1l0,0.1l0,0.1l0,0.1l0,0.1l0,0.1l0,0.1l0,0.1l0,0.1l0,0.1l0,0.1l0,0.1
			l0,0.1l0,0.1l0,0.1l0,0.1l0,0.1l0,0.1l0,0.1l0,0.1l0,0.1l0,0.1l0.1,0.1l0.1,0.1l0.1,0.1l0.1,0.1l0.1,0.1l0.1,0.1l0.1,0.1l0.1,0.1
			l0.1,0.1l0.1,0.1l0.1,0.1l0.1,0.1l0.1,0.1l0.1,0.1l0.1,0.1l0.1,0.1l0.1,0.1l0.1,0.1l0.1,0.1l0.1,0.1l0.1,0.1l0.1,0.1l0.1,0.1
			l0.1,0.1l0.1,0.1l0.1,0.1l0.1,0.1l0.1,0.1l0.1,0.1l0.1,0.1l0.1,0.1l0.1,0.1l0.1,0.1l0.1,0.1l0.1,0.1l0.1,0.1l0.1,0.1l0.1,0.1
			l0.1,0.1l0.1,0.1l0.1,0.1l0.1,0.1l0.1,0.1l0.1,0.1l0.1,0.1l0.1,0.1l0.1,0.1l0.1,0.1l0.1,0.1l0.1,0.1l0.1,0.1l0.1,0.1l0.1,0l0.1,0
			l0.1,0l0.1,0l0.1,0l0.1,0l0.1,0l0.1,0l0.1,0l0.1,0l0.1,0l0.1,0l0.1,0l0.1,0l0.1,0l0.1,0l0.1,0l0.1,0l0.1,0l0.1,0l0.1,0l0.1,0
			l0.1,0l0.1,0l0.1,0l0.1,0l0.1,0l0.1,0l0.1,0l0.1,0l0.1,0l0.1,0l0.1,0l0.1,0l0.1,0l0.1,0l0.1,0h0.1 M331.2,458.4
			c-8.3,0-15,6.7-15,15.1c0,8.3,6.7,15,15.1,15c8.3,0,15-6.7,15-15.1C346.2,465.2,339.5,458.4,331.2,458.4L331.2,458.4z
			 M331.2,452.4c-11.6,0-21,9.4-21,21.1c0,11.6,9.4,21,21.1,21c11.6,0,21-9.4,21-21.1C352.2,461.8,342.8,452.4,331.2,452.4
			L331.2,452.4z M331.2,476.6c1.7,0,3.1-1.4,3.1-3.1c0-1.7-1.4-3.1-3.1-3.1 M331.1,469.3c-2.3,0-4.2,1.9-4.2,4.2
			c0,2.3,1.9,4.2,4.2,4.2 M336.4,478.1c0.3-0.3,0.5-0.6,0.7-1 M332.7,480.3c0.4-0.1,0.8-0.2,1.2-0.4 M328.4,479.9
			c0.4,0.2,0.8,0.3,1.2,0.4 M325.2,477.1c0.2,0.4,0.5,0.7,0.7,1 M324.2,472.9c0,0.4,0,0.8,0,1.2 M325.9,468.9
			c-0.3,0.3-0.5,0.6-0.7,1 M329.6,466.7c-0.4,0.1-0.8,0.2-1.2,0.4 M333.9,467.1c-0.4-0.2-0.8-0.3-1.2-0.4 M337.1,469.9
			c-0.2-0.4-0.5-0.7-0.7-1 M338.1,474.1c0-0.4,0-0.8,0-1.2 M329.7,469.5c-1.9,0.7-3,2.7-2.7,4.7 M332.6,468.9
			c-0.5-0.2-1-0.2-1.5-0.2 M332.6,469.5v-0.6 M335.3,474.2c0.3-2-0.8-4-2.7-4.7 M335.8,474.5l-0.5-0.3 M334.3,477
			c0.7-0.7,1.3-1.6,1.5-2.5 M328.5,476.7c1.6,1.3,3.8,1.3,5.4,0 M328.5,476.7l-0.5,0.3 M328,477L328,477 M326.5,474.5
			c0.2,1,0.7,1.9,1.5,2.5 M335.8,474.5L335.8,474.5 M334.3,477c0.7-0.7,1.3-1.6,1.5-2.5 M334.3,477L334.3,477 M332.6,468.9
			c-1-0.3-2-0.3-2.9,0 M332.6,468.9L332.6,468.9 M331.1,468.7L331.1,468.7 M335.8,474.5l-0.2-0.1 M334.2,476.9
			c0.8-0.7,1.3-1.6,1.5-2.5 M334.3,477l-0.2-0.1 M327.9,477l0.2-0.1 M326.5,474.5l0.2-0.1 M328,473.5c0,1.7,1.4,3.1,3.1,3.1
			s3.1-1.4,3.1-3.1c0-1.7-1.4-3.1-3.1-3.1S328,471.7,328,473.5L328,473.5z M328.4,476.7L328.4,476.7 M328.4,476.7l-0.3,0.2
			 M328.1,476.9L328.1,476.9 M327,474.2L327,474.2 M327,474.2c0.2,1,0.7,1.9,1.5,2.5 M333.8,476.7c0.8-0.6,1.3-1.5,1.5-2.5
			 M335.3,474.2L335.3,474.2 M332.6,469.5L332.6,469.5 M332.6,469.5c-0.9-0.4-2-0.3-2.9,0 M329.7,469.5L329.7,469.5 M327,474.2
			l-0.3,0.2 M326.6,474.4c0.2,1,0.7,1.9,1.5,2.5 M329.7,469.5v-0.4 M329.7,468.9v0.2 M332.6,469.1L332.6,469.1 M332.6,469.1v0.4
			 M332.6,468.9v0.2 M332.6,469.1c-0.5-0.2-1-0.2-1.5-0.2 M332.6,469.1c-1-0.3-2-0.3-2.9,0 M335.3,474.2l0.3,0.2 M335.6,474.4
			L335.6,474.4 M334.2,476.9L334.2,476.9 M334.2,476.9l-0.3-0.2 M334.2,476.9c0.8-0.7,1.3-1.6,1.5-2.5 M331.1,470.3L331.1,470.3
			 M331.2,476.6L331.2,476.6 M331.1,468.9L331.1,468.9 M328.9,473.5c0,1.2,1,2.2,2.2,2.2c1.2,0,2.2-1,2.2-2.2c0-1.2-1-2.2-2.2-2.2
			C329.9,471.3,328.9,472.3,328.9,473.5L328.9,473.5z M331.2,471.3c-1.2,0-2.2,1-2.1,2.2c0,1.2,1,2.1,2.2,2.1 M336.4,478.1
			c0.3-0.3,0.6-0.7,0.8-1.1 M332.7,480.3c0.4-0.1,0.8-0.2,1.2-0.4 M333.9,467c-0.4-0.2-0.8-0.3-1.2-0.4 M337.2,469.9
			c-0.2-0.4-0.5-0.7-0.8-1.1 M338.2,474.1c0-0.4,0-0.9,0-1.3 M309.5,473.5c0,11.9,9.7,21.6,21.6,21.6c11.9,0,21.6-9.7,21.6-21.6
			s-9.7-21.6-21.6-21.6C319.2,451.9,309.5,461.5,309.5,473.5L309.5,473.5z"/>
	</g>
</g>
</svg>
